<?xml version="1.0" encoding="UTF-8" standalone="no"?>
<svg
   xmlns:dc="http://purl.org/dc/elements/1.1/"
   xmlns:cc="http://creativecommons.org/ns#"
   xmlns:rdf="http://www.w3.org/1999/02/22-rdf-syntax-ns#"
   xmlns:svg="http://www.w3.org/2000/svg"
   xmlns="http://www.w3.org/2000/svg"
   xmlns:sodipodi="http://sodipodi.sourceforge.net/DTD/sodipodi-0.dtd"
   xmlns:inkscape="http://www.inkscape.org/namespaces/inkscape"
   id="Pagina_inicia_Movil"
   data-name="Pagina inicia Movil"
   viewBox="0 0 290 330.5"
   version="1.1"
   sodipodi:docname="agencia.svg"
   inkscape:version="0.92.1 r15371">
  <metadata
     id="metadata42">
    <rdf:RDF>
      <cc:Work
         rdf:about="">
        <dc:format>image/svg+xml</dc:format>
        <dc:type
           rdf:resource="http://purl.org/dc/dcmitype/StillImage" />
      </cc:Work>
    </rdf:RDF>
  </metadata>
  <sodipodi:namedview
     pagecolor="#ffffff"
     bordercolor="#666666"
     borderopacity="1"
     objecttolerance="10"
     gridtolerance="10"
     guidetolerance="10"
     inkscape:pageopacity="0"
     inkscape:pageshadow="2"
     inkscape:window-width="1366"
     inkscape:window-height="715"
     id="namedview40"
     showgrid="false"
     inkscape:zoom="2.9965593"
     inkscape:cx="87.968009"
     inkscape:cy="168.66642"
     inkscape:window-x="-8"
     inkscape:window-y="-8"
     inkscape:window-maximized="1"
     inkscape:current-layer="La_agencia" />
  <defs
     id="defs4">
    <style
       id="style2">.cls-1{fill:#fff;}.cls-2{fill:#293549;}.cls-3{fill:#3bab5e;}.cls-4{fill:#f7f8f9;}.cls-5{fill:#424143;opacity:0.4;}.cls-5,.cls-6{isolation:isolate;}.cls-6{fill:#221f1f;opacity:0.1;}</style>
  </defs>
  <title
     id="title6">agencia</title>
  <g
     id="La_agencia"
     data-name="La agencia">
    <path
       class="cls-1"
       d="M1005.6,1010.9a14,14,0,0,1,6.3-10.9l132.4-76.4a14,14,0,0,1,12.6,0l132.4,76.4a14,14,0,0,1,6.3,10.9v152.8a14,14,0,0,1-6.3,10.9l-132.4,76.4a14,14,0,0,1-12.6,0l-132.4-76.4a14,14,0,0,1-6.3-10.9V1010.9Z"
       transform="translate(-1005.6 -922.1)"
       id="path8" />
    <path
       class="cls-2"
       d="M1074.8,977.5a8.9,8.9,0,0,1,8.9-8.9h133.9a8.9,8.9,0,0,1,8.9,8.9v219.7a8.9,8.9,0,0,1-8.9,8.9H1083.6a8.9,8.9,0,0,1-8.9-8.9V977.5Z"
       transform="translate(-1005.6 -922.1)"
       id="path10" />
    <rect
       class="cls-3"
       x="78"
       y="77.5"
       width="133.9"
       height="167.77"
       id="rect12"
       style="fill:#3d6b76;fill-opacity:1" />
    <path
       class="cls-4"
       d="M1156.1,983.2h-11a0.4,0.4,0,1,1,0-.9h11A0.4,0.4,0,1,1,1156.1,983.2Z"
       transform="translate(-1005.6 -922.1)"
       id="path14" />
    <path
       class="cls-4"
       d="M1159.7,985.6h-18.2a0.4,0.4,0,0,1,0-.9h18.2A0.4,0.4,0,0,1,1159.7,985.6Z"
       transform="translate(-1005.6 -922.1)"
       id="path16" />
    <path
       class="cls-4"
       d="M1156.1,987.9h-11a0.4,0.4,0,0,1,0-.9h11A0.4,0.4,0,0,1,1156.1,987.9Z"
       transform="translate(-1005.6 -922.1)"
       id="path18" />
    <path
       class="cls-4"
       d="M1150.6,1198.1a9.7,9.7,0,1,1,9.7-9.7A9.7,9.7,0,0,1,1150.6,1198.1Zm0-18.5a8.8,8.8,0,1,0,8.8,8.8A8.8,8.8,0,0,0,1150.6,1179.6Z"
       transform="translate(-1005.6 -922.1)"
       id="path20" />
    <rect
       class="cls-4"
       x="89.2"
       y="86.5"
       width="111.6"
       height="31.61"
       id="rect22" />
    <rect
       class="cls-5"
       x="128.2"
       y="128.4"
       width="72.6"
       height="31.61"
       id="rect24"
       style="fill:#3f0c5e;fill-opacity:1" />
    <rect
       class="cls-5"
       x="89.2"
       y="128.2"
       width="31.9"
       height="31.89"
       id="rect26"
       style="fill:#3f0c5e;fill-opacity:1" />
    <rect
       class="cls-5"
       x="128.2"
       y="167.8"
       width="72.6"
       height="31.61"
       id="rect28"
       style="fill:#3f0c5e;fill-opacity:1" />
    <rect
       class="cls-5"
       x="89.2"
       y="167.5"
       width="31.9"
       height="31.9"
       id="rect30"
       style="fill:#3f0c5e;fill-opacity:1" />
    <rect
       class="cls-5"
       x="128.2"
       y="207.1"
       width="72.6"
       height="31.61"
       id="rect32"
       style="fill:#3f0c5e;fill-opacity:1" />
    <rect
       class="cls-5"
       x="89.2"
       y="206.8"
       width="31.9"
       height="31.9"
       id="rect34"
       style="fill:#3f0c5e;fill-opacity:1" />
    <path
       class="cls-6"
       d="M1288.9,1000l-132.4-76.4a12.7,12.7,0,0,0-6-1.5v330.5a12.8,12.8,0,0,0,6-1.5l132.4-76.4a14,14,0,0,0,6.3-10.9V1010.9A14,14,0,0,0,1288.9,1000Z"
       transform="translate(-1005.6 -922.1)"
       id="path36" />
  </g>
</svg>
