<?xml version="1.0" encoding="utf-8"?>
<!-- Generator: Adobe Illustrator 16.0.0, SVG Export Plug-In . SVG Version: 6.00 Build 0)  -->
<svg xmlns="http://www.w3.org/2000/svg" xmlns:xlink="http://www.w3.org/1999/xlink" version="1.2" id="Capa_1" x="0px" y="0px" width="400px" height="400px" viewBox="0 0 400 400" xml:space="preserve">
<g id="Background">
	<rect y="17.5" fill="none" width="400" height="365"/>
</g>
<g id="Object">
	<g>
		<polygon fill="#404041" points="54.524,282.729 54.524,394.75 63.656,394.75 63.656,298.096 349.39,298.096 349.39,394.75     358.521,394.75 358.521,282.729   "/>
		<rect x="54.524" y="280.612" fill="#26A8DF" width="303.996" height="2.116"/>
	</g>
	<g>
		<polygon fill="#F3F3F3" points="238.147,279.722 212.201,279.722 215.988,256.226 234.361,256.226   "/>
		<polygon fill="#BEBDBE" points="235.586,263.575 234.361,256.226 215.988,256.226 214.763,263.575   "/>
		<path fill="#404041" d="M286.587,178.278H163.651c-2.784,0-5.122,2.338-5.122,5.122v71.266c0,2.785,2.338,5.123,5.122,5.123    h122.936c2.783,0,5.122-2.338,5.122-5.123V183.4C291.819,180.616,289.481,178.278,286.587,178.278z"/>
		<rect x="164.431" y="183.623" fill="#58595B" width="121.487" height="63.806"/>
		<rect x="168.439" y="186.852" fill="#6D6E70" width="21.603" height="57.347"/>
		<rect x="193.605" y="186.852" fill="#6D6E70" width="88.972" height="57.347"/>
		<path fill="#F3F3F3" d="M158.529,252.551v2.115c0,2.785,2.338,5.123,5.122,5.123h122.936c2.783,0,5.122-2.338,5.122-5.123v-2.115    H158.529z"/>
		<polygon fill="#BEBDBE" points="212.536,277.938 212.201,279.722 238.147,279.722 237.812,277.938   "/>
		<rect x="204.853" y="278.831" fill="#F3F3F3" width="40.755" height="1.781"/>
		<rect x="170.556" y="190.861" fill="#E5E6E7" width="17.705" height="1.336"/>
		<rect x="198.282" y="190.861" fill="#E5E6E7" width="4.677" height="1.336"/>
		<rect x="195.053" y="190.861" fill="#E5E6E7" width="1.113" height="1.336"/>
		<rect x="198.282" y="194.201" fill="#E5E6E7" width="20.489" height="1.337"/>
		<rect x="195.053" y="194.201" fill="#E5E6E7" width="1.113" height="1.337"/>
		<rect x="198.282" y="197.43" fill="#E5E6E7" width="16.702" height="1.337"/>
		<rect x="195.053" y="197.43" fill="#E5E6E7" width="1.113" height="1.337"/>
		<rect x="198.282" y="200.66" fill="#E5E6E7" width="25.055" height="1.336"/>
		<rect x="195.053" y="200.66" fill="#E5E6E7" width="1.113" height="1.336"/>
		<rect x="198.282" y="203.889" fill="#E5E6E7" width="31.515" height="1.337"/>
		<rect x="195.053" y="203.889" fill="#E5E6E7" width="1.113" height="1.337"/>
		<rect x="195.053" y="207.119" fill="#E5E6E7" width="1.113" height="1.336"/>
		<rect x="195.053" y="210.349" fill="#E5E6E7" width="1.113" height="1.335"/>
		<rect x="198.282" y="213.577" fill="#E5E6E7" width="39.419" height="1.336"/>
		<rect x="195.053" y="213.577" fill="#E5E6E7" width="1.113" height="1.336"/>
		<rect x="198.282" y="216.807" fill="#E5E6E7" width="27.282" height="1.337"/>
		<rect x="195.053" y="216.807" fill="#E5E6E7" width="1.113" height="1.337"/>
		<rect x="198.282" y="220.035" fill="#E5E6E7" width="21.826" height="1.336"/>
		<rect x="195.053" y="220.035" fill="#E5E6E7" width="1.113" height="1.336"/>
		<rect x="198.282" y="223.266" fill="#E5E6E7" width="31.068" height="1.336"/>
		<rect x="195.053" y="223.266" fill="#E5E6E7" width="1.113" height="1.336"/>
		<rect x="198.282" y="226.494" fill="#E5E6E7" width="25.834" height="1.336"/>
		<rect x="195.053" y="226.494" fill="#E5E6E7" width="1.113" height="1.336"/>
		<rect x="198.282" y="229.835" fill="#E5E6E7" width="51.892" height="1.335"/>
		<rect x="195.053" y="229.835" fill="#E5E6E7" width="1.113" height="1.335"/>
		<rect x="198.282" y="233.064" fill="#E5E6E7" width="9.465" height="1.336"/>
		<rect x="195.053" y="233.064" fill="#E5E6E7" width="1.113" height="1.336"/>
		<rect x="198.282" y="236.294" fill="#E5E6E7" width="19.71" height="1.336"/>
		<rect x="195.053" y="236.294" fill="#E5E6E7" width="1.113" height="1.336"/>
		<rect x="198.282" y="239.521" fill="#E5E6E7" width="1.448" height="1.338"/>
		<rect x="195.053" y="239.521" fill="#E5E6E7" width="1.113" height="1.338"/>
		<rect x="170.556" y="194.201" fill="#E5E6E7" width="17.705" height="1.337"/>
		<rect x="170.556" y="197.43" fill="#E5E6E7" width="17.705" height="1.337"/>
		<rect x="170.556" y="200.66" fill="#E5E6E7" width="17.705" height="1.336"/>
		<rect x="170.556" y="203.889" fill="#E5E6E7" width="17.705" height="1.337"/>
		<rect x="170.556" y="207.119" fill="#E5E6E7" width="17.705" height="1.336"/>
		<rect x="170.556" y="210.349" fill="#E5E6E7" width="17.705" height="1.335"/>
		<rect x="170.556" y="213.577" fill="#E5E6E7" width="17.705" height="1.336"/>
		<rect x="170.556" y="216.807" fill="#E5E6E7" width="17.705" height="1.337"/>
		<rect x="170.556" y="220.035" fill="#E5E6E7" width="17.705" height="1.336"/>
		<rect x="170.556" y="223.266" fill="#E5E6E7" width="17.705" height="1.336"/>
		<rect x="170.556" y="226.494" fill="#E5E6E7" width="17.705" height="1.336"/>
		<rect x="170.556" y="229.835" fill="#E5E6E7" width="17.705" height="1.335"/>
		<rect x="170.556" y="233.064" fill="#E5E6E7" width="17.705" height="1.336"/>
		<rect x="170.556" y="236.294" fill="#E5E6E7" width="17.705" height="1.336"/>
		<rect x="170.556" y="239.521" fill="#E5E6E7" width="17.705" height="1.338"/>
		<circle fill="#404041" cx="225.787" cy="256.226" r="2.339"/>
	</g>
	<g>
		<path fill="#404041" d="M328.456,227.72h-73.271c-2.784,0-4.9,2.227-4.9,4.899v43.428h83.183v-43.428    C333.355,229.946,331.128,227.72,328.456,227.72z"/>
		<path fill="#58595B" d="M328.456,231.06h-73.271c-0.891,0-1.559,0.668-1.559,1.56v39.975h76.389v-39.975    C330.015,231.728,329.235,231.06,328.456,231.06z"/>
		<g>
			<path fill="#E5E6E7" d="M278.235,248.876l-11.581,4.788l11.581,4.677v3.787l-16.259-6.903v-3.23l16.259-7.016V248.876z"/>
			<path fill="#E5E6E7" d="M294.604,239.745h3.675l-6.792,24.274h-3.564L294.604,239.745z"/>
			<path fill="#E5E6E7" d="M307.854,258.452l11.582-4.788l-11.582-4.677v-3.786l16.258,7.016v3.23l-16.258,7.015V258.452z"/>
		</g>
		<path fill="#F3F3F3" d="M245.273,276.047c0,2.562,2.116,4.565,4.566,4.565h83.737c2.562,0,4.566-2.116,4.566-4.565H245.273z"/>
		<rect x="250.174" y="275.155" fill="#464052" width="83.182" height="0.892"/>
		<path fill="#BEBDBE" d="M300.283,277.382h-16.927c-0.667,0-1.336-0.557-1.336-1.335l0,0h19.487l0,0    C301.508,276.715,300.951,277.382,300.283,277.382z"/>
	</g>
	<g>
		<path fill="#404041" d="M155.3,194.87H51.295c-1.114,0-2.005,0.891-2.005,2.004v64.363c0,1.113,0.891,2.005,2.005,2.005h46.323    v15.924H76.907v1.67H129.8v-1.67h-20.712v-15.924h46.323c1.114,0,2.004-0.892,2.004-2.005v-64.363    C157.304,195.76,156.414,194.87,155.3,194.87z"/>
		<rect x="53.856" y="200.104" fill="#E5E6E7" width="98.883" height="56.011"/>
		<rect x="56.306" y="206.896" fill="#6D6E70" width="13.14" height="40.757"/>
		<rect x="71.673" y="206.896" fill="#6D6E70" width="54.229" height="40.757"/>
		<rect x="57.642" y="209.792" fill="#E5E6E7" width="10.801" height="1.001"/>
		<rect x="74.568" y="209.792" fill="#E5E6E7" width="2.895" height="1.001"/>
		<rect x="72.564" y="209.792" fill="#E5E6E7" width="0.667" height="1.001"/>
		<rect x="74.568" y="212.019" fill="#E5E6E7" width="12.472" height="1.002"/>
		<rect x="72.564" y="212.019" fill="#E5E6E7" width="0.667" height="1.002"/>
		<rect x="74.568" y="214.356" fill="#E5E6E7" width="10.133" height="1.003"/>
		<rect x="72.564" y="214.356" fill="#E5E6E7" width="0.667" height="1.003"/>
		<rect x="74.568" y="216.694" fill="#E5E6E7" width="15.255" height="1.003"/>
		<rect x="72.564" y="216.694" fill="#E5E6E7" width="0.667" height="1.003"/>
		<rect x="74.568" y="218.922" fill="#E5E6E7" width="19.153" height="1.002"/>
		<rect x="72.564" y="218.922" fill="#E5E6E7" width="0.667" height="1.002"/>
		<rect x="72.564" y="221.261" fill="#E5E6E7" width="0.667" height="1.002"/>
		<rect x="72.564" y="223.488" fill="#E5E6E7" width="0.667" height="1.001"/>
		<rect x="74.568" y="225.825" fill="#E5E6E7" width="24.052" height="1.004"/>
		<rect x="72.564" y="225.825" fill="#E5E6E7" width="0.667" height="1.004"/>
		<rect x="74.568" y="228.165" fill="#E5E6E7" width="16.703" height="1.001"/>
		<rect x="72.564" y="228.165" fill="#E5E6E7" width="0.667" height="1.001"/>
		<rect x="74.568" y="230.392" fill="#E5E6E7" width="13.251" height="1.001"/>
		<rect x="72.564" y="230.392" fill="#E5E6E7" width="0.667" height="1.001"/>
		<rect x="74.568" y="232.73" fill="#E5E6E7" width="18.93" height="1.002"/>
		<rect x="72.564" y="232.73" fill="#E5E6E7" width="0.667" height="1.002"/>
		<rect x="74.568" y="235.067" fill="#E5E6E7" width="15.701" height="1.003"/>
		<rect x="72.564" y="235.067" fill="#E5E6E7" width="0.667" height="1.003"/>
		<rect x="74.568" y="237.295" fill="#E5E6E7" width="31.624" height="1.003"/>
		<rect x="72.564" y="237.295" fill="#E5E6E7" width="0.667" height="1.003"/>
		<rect x="74.568" y="239.634" fill="#E5E6E7" width="5.79" height="1.001"/>
		<rect x="72.564" y="239.634" fill="#E5E6E7" width="0.667" height="1.001"/>
		<rect x="74.568" y="241.973" fill="#E5E6E7" width="12.026" height="1.002"/>
		<rect x="72.564" y="241.973" fill="#E5E6E7" width="0.667" height="1.002"/>
		<rect x="74.568" y="244.199" fill="#E5E6E7" width="0.89" height="1.002"/>
		<rect x="72.564" y="244.199" fill="#E5E6E7" width="0.667" height="1.002"/>
		<rect x="57.642" y="212.019" fill="#E5E6E7" width="10.801" height="1.002"/>
		<rect x="57.642" y="214.356" fill="#E5E6E7" width="10.801" height="1.003"/>
		<rect x="57.642" y="216.694" fill="#E5E6E7" width="10.801" height="1.003"/>
		<rect x="57.642" y="218.922" fill="#E5E6E7" width="10.801" height="1.002"/>
		<rect x="57.642" y="221.261" fill="#E5E6E7" width="10.801" height="1.002"/>
		<rect x="57.642" y="223.488" fill="#E5E6E7" width="10.801" height="1.001"/>
		<rect x="57.642" y="225.825" fill="#E5E6E7" width="10.801" height="1.004"/>
		<rect x="57.642" y="228.165" fill="#E5E6E7" width="10.801" height="1.001"/>
		<rect x="57.642" y="230.392" fill="#E5E6E7" width="10.801" height="1.001"/>
		<rect x="57.642" y="232.73" fill="#E5E6E7" width="10.801" height="1.002"/>
		<rect x="57.642" y="235.067" fill="#E5E6E7" width="10.801" height="1.003"/>
		<rect x="57.642" y="237.295" fill="#E5E6E7" width="10.801" height="1.003"/>
		<rect x="57.642" y="239.634" fill="#E5E6E7" width="10.801" height="1.001"/>
		<rect x="57.642" y="241.973" fill="#E5E6E7" width="10.801" height="1.002"/>
		<rect x="57.642" y="244.199" fill="#E5E6E7" width="10.801" height="1.002"/>
		<rect x="103.297" y="215.581" fill="#404041" width="41.535" height="22.383"/>
		<rect x="108.865" y="221.483" fill="#E5E6E7" width="2.895" height="1.002"/>
		<rect x="108.865" y="223.711" fill="#E5E6E7" width="12.472" height="1.001"/>
		<rect x="103.297" y="217.14" fill="#E5E6E7" width="41.535" height="1.004"/>
		<rect x="108.865" y="226.049" fill="#E5E6E7" width="10.133" height="1.003"/>
		<rect x="108.865" y="228.387" fill="#E5E6E7" width="15.255" height="1.003"/>
		<rect x="108.865" y="230.613" fill="#E5E6E7" width="19.153" height="1.004"/>
	</g>
	<g>
		<g>
			<path fill="#38A7AA" d="M354.513,264.8L354.513,264.8v-1.559c0-0.669-0.557-1.226-1.226-1.226h-10.578     c-0.668,0-1.225,0.557-1.225,1.226v16.146c0,0.668,0.557,1.225,1.225,1.225h10.578c0.669,0,1.226-0.557,1.226-1.225v-3.007l0,0     c3.229,0,5.79-2.561,5.79-5.79C360.303,267.36,357.741,264.8,354.513,264.8z M354.513,274.934L354.513,274.934v-8.797l0,0     c2.449,0,4.454,2.003,4.454,4.454C358.967,272.928,356.962,274.934,354.513,274.934z"/>
			<g>
				<g>
					<path fill="#BABCBE" d="M344.156,259.901h1.113v-8.687h-1.113V259.901z M347.275,257.451h1.113v-8.241h-1.113V257.451z        M350.838,251.215v8.687h1.113v-8.687H350.838z"/>
				</g>
			</g>
		</g>
	</g>
	<g>
		<path fill="#404041" d="M152.516,275.824c3.563,0.779,6.236,2.672,6.904,3.118c0.557,0.445,0.445,1.67-0.779,1.67h-11.915    c-0.445,0-0.891-0.334-0.891-0.779C145.723,276.938,148.953,275.045,152.516,275.824z"/>
		<path fill="#BEBDBE" d="M145.834,280.166h13.696c-0.222,0.224-0.445,0.446-1.001,0.446h-11.915    C146.28,280.612,145.946,280.39,145.834,280.166z"/>
	</g>
	<rect x="54.969" y="141.085" fill="#404041" width="144.872" height="12.806"/>
	<g>
		<circle fill="#FFF7E2" cx="170.556" cy="126.387" r="12.806"/>
		<circle fill="#404041" cx="170.556" cy="126.387" r="0.668"/>
		<path fill="#404041" d="M154.409,116.031c-1.448,2.227-0.779,5.122,1.448,6.458l5.122-7.906    C158.752,113.247,155.857,113.915,154.409,116.031z M186.702,116.031c-1.448-2.227-4.343-2.784-6.459-1.448l5.122,7.906    C187.481,121.153,188.149,118.258,186.702,116.031z M184.252,126.498c0-7.572-6.125-13.697-13.696-13.697    c-7.572,0-13.697,6.125-13.697,13.697c0,4.009,1.67,7.572,4.454,10.133l-1.336,3.007c-0.111,0.223,0,0.557,0.223,0.668    c0.223,0.111,0.557,0.111,0.78-0.223l1.447-2.672c2.338,1.67,5.123,2.672,8.129,2.672c3.118,0,5.901-1.002,8.24-2.672l1.448,2.672    c0.111,0.223,0.445,0.334,0.668,0.223c0.334-0.111,0.446-0.445,0.223-0.78l-1.336-3.006    C182.582,134.07,184.252,130.507,184.252,126.498z M170.556,138.302c-6.57,0-11.804-5.345-11.804-11.804    c0-6.57,5.345-11.803,11.804-11.803c6.57,0,11.803,5.344,11.803,11.803C182.359,133.068,177.125,138.302,170.556,138.302z"/>
		<rect x="170.333" y="115.585" fill="#404041" width="0.445" height="1.782"/>
		<rect x="170.333" y="118.481" fill="#404041" width="0.445" height="7.794"/>
		
			<rect x="172.484" y="125.2" transform="matrix(-0.5832 0.8123 -0.8123 -0.5832 377.2589 62.066)" fill="#404041" width="0.445" height="5.234"/>
		<rect x="179.687" y="126.164" fill="#404041" width="1.782" height="0.446"/>
		<rect x="170.333" y="135.518" fill="#404041" width="0.445" height="1.781"/>
		<rect x="159.643" y="126.164" fill="#404041" width="1.782" height="0.446"/>
	</g>
	<g>
		<path fill="#91B462" d="M87.708,82.847h-20.6c-0.334,0-0.557,0.223-0.557,0.557v57.013c0,0.334,0.223,0.557,0.557,0.557h20.6    c0.335,0,0.557-0.223,0.557-0.557V83.516C88.265,83.182,88.042,82.847,87.708,82.847z"/>
		<rect x="69.557" y="89.417" fill="#FFF7E2" width="15.701" height="14.699"/>
	</g>
	<g>
		<path fill="#EF5A28" d="M105.636,96.767H88.933c-0.333,0-0.557,0.223-0.557,0.557v43.316c0,0.334,0.223,0.557,0.557,0.557h16.703    c0.334,0,0.557-0.223,0.557-0.557V97.324C106.192,96.989,105.858,96.767,105.636,96.767z"/>
		<circle fill="#FFF7E2" cx="97.172" cy="134.739" r="2.561"/>
		<rect x="89.824" y="100.441" fill="#FFF7E2" width="14.699" height="29.174"/>
	</g>
	<g>
		<rect x="284.804" fill="#404041" width="2.228" height="112.022"/>
		<path fill="#FFAE12" d="M236.255,128.726h99.327c-7.237-20.489-26.724-35.188-49.664-35.188    C262.979,93.538,243.381,108.236,236.255,128.726z"/>
	</g>
	<g>
		<path fill="#1F497D" d="M195.276,259.789H156.08c-4.343,0-7.684,3.674-7.461,8.018l3.229,43.985    c0.334,3.897,3.563,6.903,7.461,6.903h32.85c3.897,0,7.126-3.006,7.46-6.903l3.23-43.985    C202.959,263.463,199.618,259.789,195.276,259.789z"/>
		<path fill="#1F497D" d="M232.913,330.611h-56.01c-3.229,0-5.791,3.005-5.791,6.681c0,3.675,2.561,6.682,5.791,6.682h56.01    c3.229,0,5.792-3.007,5.792-6.682C238.705,333.616,236.143,330.611,232.913,330.611z"/>
		<path fill="#58595B" d="M212.536,391.521v-24.608h-2.562v-8.018h9.354c3.118,0,3.452,1.113,3.452,3.452v3.785    c0,0.67,0.445,1.114,1.113,1.114c0.669,0,1.114-0.444,1.114-1.114v-3.785c0-2.673-0.669-5.68-5.68-5.68h-9.354v-2.004    c0.112,0,0.112,0,0.223,0v-0.891c7.239-1.114,13.586-4.677,18.374-9.799h-33.74c-7.795-4.454-15.367-14.031-15.812-33.742    c2.896-1.335,4.789-4.231,4.789-7.571v-26.948c0-4.564-3.675-8.352-8.352-8.352c-4.677,0-8.352,3.676-8.352,8.352v26.948    c0,3.453,2.116,6.348,5.123,7.684c0.334,14.477,4.454,25.945,11.692,33.63h-2.45c4.788,5.122,11.136,8.685,18.262,9.799v13.029    h-2.562v24.608h-16.481v5.79h48.328v-5.79h-16.479V391.521z"/>
	</g>
</g>
</svg>
