<?xml version="1.0" ?><!DOCTYPE svg  PUBLIC '-//W3C//DTD SVG 1.1//EN'  'http://www.w3.org/Graphics/SVG/1.1/DTD/svg11.dtd'><svg height="2048px" style="shape-rendering:geometricPrecision; text-rendering:geometricPrecision; image-rendering:optimizeQuality; fill-rule:evenodd; clip-rule:evenodd" viewBox="0 0 2048 2048" width="2048px" xml:space="preserve" xmlns="http://www.w3.org/2000/svg" xmlns:xlink="http://www.w3.org/1999/xlink"><defs><style type="text/css">
   <![CDATA[
    .fil7 {fill:none}
    .fil0 {fill:#424242}
    .fil3 {fill:#3572B8;fill-rule:nonzero}
    .fil6 {fill:#733D91;fill-rule:nonzero}
    .fil2 {fill:#7A943B;fill-rule:nonzero}
    .fil4 {fill:#B21F17;fill-rule:nonzero}
    .fil5 {fill:#EB6D1D;fill-rule:nonzero}
    .fil1 {fill:#FCB825;fill-rule:nonzero}
   ]]>
  </style></defs><g id="Layer_x0020_1"><g id="_337877688"><polygon class="fil0" id="_337879896" points="913.807,632.461 901.648,621.147 353.802,1211.35 365.96,1222.66 "/><polygon class="fil0" id="_337880016" points="402.443,1299.68 398.546,1315.79 886.966,1433.58 890.864,1417.48 "/><polygon class="fil0" id="_337880400" points="1628.72,877.461 1612.54,873.823 1550.12,1147.81 1566.3,1151.45 "/><polygon class="fil0" id="_337879392" points="1106.1,1416.6 1112.39,1431.9 1470.77,1269.89 1464.48,1254.59 "/><polygon class="fil0" id="_337879008" points="943.939,1353.43 958.45,1345.29 843.643,1141.54 829.131,1149.67 "/><polygon class="fil0" id="_337879056" points="865.815,1044.48 871.665,1060.01 1537.89,808.077 1532.04,792.538 "/><polygon class="fil0" id="_337879224" points="1037.02,570.548 1032.54,586.548 1529.06,727.127 1533.55,711.129 "/><polygon class="fil0" id="_337879032" points="1012.37,617.813 999.687,628.541 1462.65,1176.41 1475.33,1165.68 "/><polygon class="fil0" id="_337878792" points="1565.55,846.021 1553.53,834.582 1058.77,1353.77 1070.79,1365.21 "/><polygon class="fil0" id="_337878672" points="982.808,639.42 966.125,639.42 966.125,1341.84 982.808,1341.84 "/><polygon class="fil0" id="_337878432" points="919.427,630.612 903.224,626.837 812.544,1009.83 828.748,1013.61 "/><polygon class="fil0" id="_337878384" points="383.208,1227.06 389.058,1242.6 735.12,1111.73 729.27,1096.19 "/><path class="fil1" d="M1655.06 617.287c37.813,0 72.0508,15.3307 96.8316,40.1114 24.7807,24.7807 40.1114,59.0185 40.1114,96.8316 0,37.813 -15.3307,72.0508 -40.1114,96.8316 -24.7807,24.7807 -59.0185,40.1103 -96.8316,40.1103 -37.813,0 -72.0508,-15.3295 -96.8304,-40.1103 -24.7807,-24.7807 -40.1103,-59.0185 -40.1103,-96.8316 0,-37.813 15.3295,-72.0508 40.1103,-96.8316 24.7795,-24.7807 59.0174,-40.1114 96.8304,-40.1114z" id="_337878624"/><path class="fil2" d="M1528.47 1135.34c24.0166,0 45.7607,9.73702 61.5,25.4752 15.7394,15.7394 25.4752,37.4847 25.4752,61.5 0,24.0166 -9.73583,45.7607 -25.4752,61.5 -15.7394,15.7382 -37.4835,25.4752 -61.5,25.4752 -24.0142,0 -45.7607,-9.73702 -61.5,-25.4752 -15.7382,-15.7394 -25.4752,-37.4835 -25.4752,-61.5 0,-24.0154 9.73702,-45.7607 25.4752,-61.5 15.7394,-15.7382 37.4859,-25.4752 61.5,-25.4752z" id="_337878840"/><path class="fil3" d="M999.348 1330.31c33.6697,0 64.1552,13.6488 86.2217,35.7154 22.0654,22.0654 35.7166,52.552 35.7166,86.2217 0,33.6697 -13.65,64.1552 -35.7166,86.2217 -22.0654,22.0666 -52.552,35.7166 -86.2217,35.7166 -33.6697,0 -64.1552,-13.6512 -86.2217,-35.7166 -22.0666,-22.0677 -35.7154,-52.552 -35.7154,-86.2217 0,-33.6697 13.6488,-64.154 35.7154,-86.2205 22.0666,-22.0654 52.552,-35.7166 86.2217,-35.7166z" id="_337878240"/><path class="fil4" d="M334.839 1203.39c21.7677,0 41.4792,8.82757 55.7469,23.0941 14.2665,14.2677 23.0941,33.9792 23.0941,55.7469 0,21.7689 -8.8252,41.4803 -23.0941,55.7481 -14.2654,14.2665 -33.978,23.0941 -55.7469,23.0941 -21.7689,0 -41.4815,-8.82757 -55.7469,-23.0941 -14.2689,-14.2677 -23.0941,-33.9792 -23.0941,-55.7481 0,-21.7689 8.8252,-41.4792 23.0941,-55.7469 14.2654,-14.2665 33.978,-23.0941 55.7469,-23.0941z" id="_337878936"/><path class="fil5" d="M958.172 473.813c24.0142,0 45.7607,9.73702 61.5,25.4764 15.7382,15.7382 25.4752,37.4835 25.4752,61.5 0,24.0142 -9.73702,45.7607 -25.4752,61.4989 -15.7394,15.7394 -37.4859,25.4764 -61.5,25.4764 -24.0154,0 -45.7607,-9.73702 -61.5,-25.4764 -15.7394,-15.7382 -25.4752,-37.4847 -25.4752,-61.4989 0,-24.0154 9.73583,-45.7618 25.4752,-61.5 15.7394,-15.7394 37.4847,-25.4764 61.5,-25.4764z" id="_337877616"/><path class="fil6" d="M799.869 997.834c22.8709,0 43.5803,9.27402 58.5697,24.2622 14.9882,14.9894 24.2622,35.6988 24.2622,58.5709 0,22.8709 -9.27402,43.5792 -24.2622,58.5685 -14.9894,14.9882 -35.6988,24.2622 -58.5697,24.2622 -22.8721,0 -43.5815,-9.27402 -58.5697,-24.2622 -14.9894,-14.9894 -24.2622,-35.6977 -24.2622,-58.5685 0,-22.8721 9.27284,-43.5815 24.2622,-58.5709 14.9882,-14.9882 35.6977,-24.2622 58.5697,-24.2622z" id="_337877880"/></g></g><rect class="fil7" height="2048" width="2048"/></svg>