<?xml version="1.0" encoding="utf-8"?>
<!-- Generator: Adobe Illustrator 17.0.0, SVG Export Plug-In . SVG Version: 6.00 Build 0)  -->
<!DOCTYPE svg PUBLIC "-//W3C//DTD SVG 1.1//EN" "http://www.w3.org/Graphics/SVG/1.1/DTD/svg11.dtd">
<svg version="1.1" id="Capa_1" xmlns="http://www.w3.org/2000/svg" xmlns:xlink="http://www.w3.org/1999/xlink" x="0px" y="0px"
	 width="2000px" height="2000px" viewBox="0 0 2000 2000" enable-background="new 0 0 2000 2000" xml:space="preserve">
<g>
	<path fill="#F4F4F4" d="M1631.473,739.173c-121.446,0-219.898,98.452-219.898,219.899s98.452,219.899,219.898,219.899
		c121.447,0,219.899-98.452,219.899-219.899h-219.899V739.173z"/>
	<path fill="#EB6127" d="M1867.44,943.004c0-121.447-98.452-219.899-219.899-219.899v219.899H1867.44z"/>
</g>
<g>
	<g opacity="0.7">
		<g>
			<path fill="#4C7E97" d="M1559.78,687.633h-244.031V443.602h244.031V687.633z M1321.174,682.206h233.178V449.028h-233.178V682.206
				z"/>
		</g>
		<g>
			<path fill="#4C7E97" d="M132.762,1350.081c-18.284,0-35.422-9.836-44.728-25.66l-4.76-8.108l8.353,4.324
				c6.634,3.435,13.79,5.172,21.251,5.172c20.275,0,38.061-12.973,44.24-32.284c0.223-5.044-0.085-15.559-6.01-21.855
				c-3.487-3.698-8.607-5.574-15.21-5.574H93.684v-35.252h28.246v-33.557H82.946v-34.732h20.933V449.028H77.721v-21.982h-8.374
				v-80.775h169.828l851.196-293.826V16.621h115.307v66.053l342.962,263.597h33.123v80.775H194.077v21.982h-26.158v713.526h20.922
				v34.732H147.77v39.015c8.924,3.233,44.229,19.057,36.705,65.258c-0.392,6.773-2.184,13.514-5.311,19.766l-1.675,3.381
				l-0.116-0.095C168.045,1340.405,151.247,1350.081,132.762,1350.081z M98.145,1329.107c8.734,9.751,21.336,15.548,34.617,15.548
				c17.583,0,33.461-9.783,41.442-25.533l0.561-1.113c2.544-5.49,3.965-11.15,4.314-17.044
				c7.802-47.897-32.994-59.609-34.732-60.085l-2.003-0.54v-48.48h41.072v-23.88h-20.923V443.602h26.158v-21.983h1387.686v-69.921
				h-29.539L1200.251,85.345V22.048h-104.453v34.256l-1.823,0.636L240.087,351.698H74.774v69.921h8.374v21.983h26.158v724.378
				H88.373v23.88h38.983v44.41H99.109v24.398h36.789c8.162,0,14.606,2.448,19.153,7.282c6.964,7.387,7.843,18.527,7.366,26.56
				c-7.038,22.238-26.89,36.726-49.54,36.726C107.822,1331.236,102.893,1330.527,98.145,1329.107z M161.633,1167.98h-51.468V443.602
				h51.468V1167.98z M115.591,1162.554h40.616V449.028h-40.616V1162.554z M1540.161,351.698h-240.226v-21.972h-99.684V90.443
				L1540.161,351.698z M1305.361,346.271h218.838l-318.521-244.805v222.833h99.684V346.271z M996.114,351.698H250.273
				l845.525-291.865v269.893h-99.684V351.698z M282.621,346.271h708.066v-21.972h99.684V67.443L282.621,346.271z"/>
		</g>
		<g>
			<path fill="#4C7E97" d="M1926.208,1977.914H369.841v-138.465h172.678v-31.108h475.683V442.669h259.655v1365.672h475.673v31.108
				h172.678V1977.914z M375.267,1972.487h1545.516v-127.612h-172.679v-31.108H1272.43V448.096h-248.801v1365.671H547.946v31.108
				h-172.68V1972.487z M1232.875,1794.826h-183.543v-183.542L1232.875,1794.826z M1054.758,1789.4h165.016l-165.016-165.016V1789.4z
				 M1248.55,1779.151l-183.542-183.543h183.542V1779.151z M1078.108,1601.034l165.016,165.016v-165.016H1078.108z
				 M1246.717,1570.647h-183.543l183.543-183.542V1570.647z M1076.274,1565.22h165.016v-165.015L1076.274,1565.22z
				 M1047.497,1554.971v-183.543h183.543L1047.497,1554.971z M1052.924,1376.855v165.016l165.016-165.016H1052.924z
				 M1232.875,1343.351h-183.543v-183.542L1232.875,1343.351z M1054.758,1337.925h165.016l-165.016-165.016V1337.925z
				 M1248.55,1327.675l-183.542-183.543h183.542V1327.675z M1078.108,1149.559l165.016,165.016v-165.016H1078.108z
				 M1246.717,1119.171h-183.543l183.543-183.542V1119.171z M1076.274,1113.744h165.016V948.729L1076.274,1113.744z
				 M1047.497,1103.496V919.953h183.543L1047.497,1103.496z M1052.924,925.379v165.016l165.016-165.016H1052.924z M1232.875,895.108
				h-183.543V711.566L1232.875,895.108z M1054.758,889.683h165.016l-165.016-165.016V889.683z M1248.55,879.433L1065.008,695.89
				h183.542V879.433z M1078.108,701.317l165.016,165.016V701.317H1078.108z M1246.717,670.929h-183.543l183.543-183.542V670.929z
				 M1076.274,665.502h165.016V500.487L1076.274,665.502z M1047.497,655.254V471.71h183.543L1047.497,655.254z M1052.924,477.137
				v165.015l165.016-165.015H1052.924z"/>
		</g>
	</g>
</g>
<path fill="#EB6127" d="M854.38,1285.912c6.012-0.665,56.777-7.387,56.777-7.387s5.087-4.779,5-12.205
	c-0.085-7.425-0.2-17.239-0.2-17.239s-0.113-9.814-0.2-17.24c-0.085-7.426-5.281-12.086-5.281-12.086s-50.908-5.544-56.935-6.071
	c-2.856-0.249-6.685-2.769-9.925-5.352c-3.414-13.67-8.397-26.807-14.794-39.164c0.727-4.09,1.94-8.535,3.927-10.615
	c4.177-4.376,38.746-42.156,38.746-42.156s0.825-6.93-4.014-12.563c-4.839-5.633-11.234-13.078-11.234-13.078
	s-6.395-7.445-11.234-13.078c-4.838-5.633-11.814-5.864-11.814-5.864s-42.562,28.476-47.518,31.946
	c-2.349,1.645-6.908,2.176-11.053,2.281c-11.198-8.151-23.421-15.07-36.508-20.524c-2.067-3.594-3.987-7.761-3.803-10.625
	c0.388-6.037,2.583-57.198,2.583-57.198s-3.823-5.839-11.151-7.043c-7.327-1.205-17.011-2.797-17.011-2.797
	s-9.684-1.593-17.013-2.797c-7.327-1.205-12.818,3.103-12.818,3.103s-14.301,49.172-15.866,55.014
	c-0.743,2.773-3.896,6.104-7.005,8.848c-14.144,0.977-27.941,3.618-41.158,7.754c-3.893-1.426-8.041-3.388-9.742-5.7
	c-3.582-4.874-34.787-45.478-34.787-45.478s-6.682-2.015-13.069,1.772c-6.388,3.788-14.831,8.793-14.831,8.793
	s-8.443,5.006-14.83,8.793c-6.388,3.787-7.826,10.617-7.826,10.617s20.652,46.859,23.209,52.341
	c1.216,2.608,0.942,7.208,0.322,11.315c-10.017,9.659-18.944,20.508-26.554,32.365c-3.896,1.409-8.331,2.57-11.117,1.893
	c-5.877-1.43-55.881-12.477-55.881-12.477s-6.414,2.751-8.873,9.758c-2.458,7.007-5.709,16.267-5.709,16.267
	s-3.249,9.261-5.709,16.268c-2.459,7.008,0.829,13.163,0.829,13.163s45.941,22.622,51.424,25.178
	c2.612,1.218,5.364,4.93,7.531,8.481c-1.502,14.189-1.298,28.207,0.45,41.841c-2.079,3.583-4.73,7.324-7.299,8.596
	c-5.422,2.682-50.827,26.362-50.827,26.362s-3.145,6.231-0.526,13.179c2.621,6.948,6.084,16.131,6.084,16.131
	s3.463,9.183,6.084,16.131c2.62,6.948,9.097,9.551,9.097,9.551s49.734-12.201,55.576-13.767c2.785-0.746,7.279,0.328,11.223,1.656
	c7.806,11.563,16.943,22.214,27.23,31.718c0.716,4.093,1.096,8.685-0.059,11.321c-2.43,5.54-21.992,52.866-21.992,52.866
	s1.595,6.794,8.07,10.432c6.474,3.638,15.029,8.447,15.029,8.447s8.556,4.808,15.029,8.447c6.474,3.638,13.108,1.469,13.108,1.469
	s30.256-41.316,33.725-46.271c1.652-2.358,5.777-4.422,9.647-5.939c6.641,1.896,13.454,3.441,20.432,4.589
	c6.979,1.147,13.928,1.864,20.826,2.195c3.181,2.675,6.428,5.951,7.237,8.714c1.7,5.806,17.134,54.633,17.134,54.633
	s5.59,4.179,12.887,2.805c7.298-1.374,16.944-3.19,16.944-3.19s9.644-1.817,16.943-3.191c7.297-1.374,10.985-7.3,10.985-7.3
	s-3.379-51.097-3.908-57.123c-0.251-2.867,1.581-7.097,3.569-10.744c12.788-5.71,24.855-12.875,35.952-21.33
	c4.161,0.003,8.764,0.425,11.163,2.024c5.033,3.354,48.243,30.837,48.243,30.837s6.969-0.392,11.677-6.135
	c4.706-5.744,10.927-13.335,10.927-13.335s6.222-7.59,10.929-13.334c4.707-5.744,3.723-12.653,3.723-12.653
	s-35.434-36.971-39.711-41.247c-2.028-2.028-3.341-6.42-4.164-10.48c6.022-12.357,10.703-25.571,13.824-39.494
	C847.719,1288.864,851.514,1286.229,854.38,1285.912z M788.934,1271.727c-10.926,66.456-73.655,111.471-140.111,100.545
	c-66.455-10.926-111.471-73.657-100.544-140.112c10.926-66.455,73.657-111.47,140.111-100.544
	C754.846,1142.542,799.86,1205.273,788.934,1271.727z"/>
<g>
	<g>
		<g>
			<path fill="#E5E5E5" d="M1090.704,1558.93l9.475-12.895c6.013-8.183,3.7-20.193-5.141-26.689l-42.863-31.496
				c-8.84-6.496-20.994-5.115-27.006,3.068l-9.476,12.895L1090.704,1558.93z"/>
			<path fill="#CAC9C9" d="M1090.704,1558.93l-9.476,12.895c-6.012,8.183-18.166,9.563-27.006,3.068l-42.863-31.495
				c-8.841-6.497-11.154-18.507-5.141-26.689l9.475-12.896L1090.704,1558.93z"/>
		</g>
		<g>
			<path fill="#E5E5E5" d="M1090.704,1558.93l9.475-12.895c6.013-8.183,3.7-20.193-5.141-26.689l-42.863-31.496
				c-8.84-6.496-20.994-5.115-27.006,3.068l-9.476,12.895L1090.704,1558.93z"/>
			<path fill="#CAC9C9" d="M1090.704,1558.93l-9.476,12.895c-6.012,8.183-18.166,9.563-27.006,3.068l-42.863-31.495
				c-8.841-6.497-11.154-18.507-5.141-26.689l9.475-12.896L1090.704,1558.93z"/>
		</g>
	</g>
	<g>
		<g>
			
				<rect x="1013.231" y="1680.833" transform="matrix(0.8058 0.5921 -0.5921 0.8058 1260.0472 -446.0372)" fill="#EC6325" width="593.889" height="35.131"/>
			
				<rect x="992.429" y="1709.142" transform="matrix(0.8058 0.5921 -0.5921 0.8058 1272.7715 -428.2233)" fill="#DD3E1C" width="593.889" height="35.131"/>
		</g>
		<g>
			
				<rect x="1013.231" y="1680.833" transform="matrix(0.8058 0.5921 -0.5921 0.8058 1260.0472 -446.0372)" fill="#EC6325" width="593.889" height="35.131"/>
			
				<rect x="992.429" y="1709.142" transform="matrix(0.8058 0.5921 -0.5921 0.8058 1272.7715 -428.2233)" fill="#DD3E1C" width="593.889" height="35.131"/>
		</g>
	</g>
	<polygon fill="#E8B68C" points="1561.417,1861.211 1556.148,1857.339 1514.544,1913.959 1519.813,1917.83 1608.997,1943.267 
		1610.667,1940.994 1612.337,1938.721 	"/>
	<polygon fill="#343332" points="1609.469,1934.355 1619.036,1947.144 1603.974,1941.834 	"/>
	<g>
		<g>
			
				<rect x="1063.35" y="1505.497" transform="matrix(-0.8059 -0.5921 0.5921 -0.8059 1033.2484 3384.9119)" fill="#1EAFBB" width="16.412" height="35.131"/>
			
				<rect x="1042.548" y="1533.807" transform="matrix(-0.8059 -0.5921 0.5921 -0.8059 978.9206 3423.7183)" fill="#139BA4" width="16.412" height="35.131"/>
		</g>
		<g>
			
				<rect x="1063.35" y="1505.497" transform="matrix(-0.8059 -0.5921 0.5921 -0.8059 1033.2484 3384.9119)" fill="#1EAFBB" width="16.412" height="35.131"/>
			
				<rect x="1042.548" y="1533.807" transform="matrix(-0.8059 -0.5921 0.5921 -0.8059 978.9206 3423.7183)" fill="#139BA4" width="16.412" height="35.131"/>
		</g>
	</g>
</g>
</svg>
