<?xml version="1.0" encoding="utf-8"?>
<!-- Generator: Adobe Illustrator 21.0.0, SVG Export Plug-In . SVG Version: 6.00 Build 0)  -->
<svg version="1.1"
	 id="Pagina_inicia_Movil" inkscape:version="0.92.1 r15371" sodipodi:docname="servicio-1.svg" xmlns:cc="http://creativecommons.org/ns#" xmlns:dc="http://purl.org/dc/elements/1.1/" xmlns:inkscape="http://www.inkscape.org/namespaces/inkscape" xmlns:rdf="http://www.w3.org/1999/02/22-rdf-syntax-ns#" xmlns:sodipodi="http://sodipodi.sourceforge.net/DTD/sodipodi-0.dtd" xmlns:svg="http://www.w3.org/2000/svg"
	 xmlns="http://www.w3.org/2000/svg" xmlns:xlink="http://www.w3.org/1999/xlink" x="0px" y="0px" viewBox="0 0 62.2 62.2"
	 style="enable-background:new 0 0 62.2 62.2;" xml:space="preserve">
<style type="text/css">
	.st0{fill:#3D6B76;}
	.st1{fill:none;}
	.st2{fill:#FFFFFF;stroke:#000000;stroke-miterlimit:10;}
</style>
<sodipodi:namedview  bordercolor="#666666" borderopacity="1" gridtolerance="10" guidetolerance="10" id="namedview4530" inkscape:current-layer="Pagina_inicia_Movil" inkscape:cx="11.991949" inkscape:cy="22.953775" inkscape:pageopacity="0" inkscape:pageshadow="2" inkscape:window-height="715" inkscape:window-maximized="1" inkscape:window-width="1366" inkscape:window-x="-8" inkscape:window-y="-8" inkscape:zoom="3.7942122" objecttolerance="10" pagecolor="#ffffff" showgrid="false">
	</sodipodi:namedview>
<title  id="title4523">servicio-1</title>
<path id="circle4525" class="st0" d="M62.2,31.1c0,17.2-13.9,31.1-31.1,31.1l0,0C13.9,62.2,0,48.3,0,31.1l0,0C0,13.9,13.9,0,31.1,0
	l0,0C48.3,0,62.2,13.9,62.2,31.1L62.2,31.1z"/>
<path class="st1" d="M0,0"/>
<image style="display:none;overflow:visible;enable-background:new    ;" width="100" height="100" xlink:href="B53A808A.png"  transform="matrix(0.5503 0 0 0.5503 3.5137 3.5137)">
</image>
<g>
	<path class="st2" d="M50.5,27.7V15.4c0-0.1,0-0.7-0.4-1.2c-0.4-0.4-0.9-0.5-1-0.5c-11.8,0-23.7,0-35.5,0c-0.1,0-0.6,0.1-0.9,0.4
		c-0.3,0.3-0.4,0.8-0.4,0.9c0,8.4,0,16.8,0,25.2H7.4c-0.4,1.1-0.1,1.7,0,2c0.1,0.1,0.2,0.4,1.1,1.1c0.5,0.4,1,0.8,1.3,1h1.8H32h17.4
		h1.1V27.7z"/>
	<path class="st2" d="M54.3,44.4L47.4,49L42,45.9l-7-4.1c0,0-4.3-2.5-4.4-3.2c-0.1-0.5,0.1-1,0.5-1.3c0.5-0.4,1.1-0.1,1.2-0.1
		c0.7,0.4,1.4,0.7,2.1,1.1l1,0.5l1.8,0.7c0.1,0,0.7,0,1.1-0.5c0.3-0.4,0.4-1,0.2-1.5l-1-2.6l-4.2-9.8c0-0.1-0.2-0.6,0.2-1.1
		c0.3-0.5,0.9-0.6,1-0.6c0.7-0.1,1.1,0.3,1.2,0.4c1.4,2.3,2.7,4.6,4.1,6.9c0.2,0.2,0.5,0.4,1,0.5c0.9,0.2,2.8-0.3,4.4-0.2
		c1.6,0.1,3.1,0.5,4.2,1c1,0.4,1.9,1.9,2,2.3L54.3,44.4z"/>
</g>
</svg>
