<?xml version="1.0" encoding="utf-8"?>
<!-- Generator: Adobe Illustrator 21.0.0, SVG Export Plug-In . SVG Version: 6.00 Build 0)  -->
<svg version="1.1"
	 id="Pagina_inicia_Movil" inkscape:version="0.92.1 r15371" sodipodi:docname="servicio-1.svg" xmlns:cc="http://creativecommons.org/ns#" xmlns:dc="http://purl.org/dc/elements/1.1/" xmlns:inkscape="http://www.inkscape.org/namespaces/inkscape" xmlns:rdf="http://www.w3.org/1999/02/22-rdf-syntax-ns#" xmlns:sodipodi="http://sodipodi.sourceforge.net/DTD/sodipodi-0.dtd" xmlns:svg="http://www.w3.org/2000/svg"
	 xmlns="http://www.w3.org/2000/svg" xmlns:xlink="http://www.w3.org/1999/xlink" x="0px" y="0px" viewBox="0 0 62.2 62.2"
	 style="enable-background:new 0 0 62.2 62.2;" xml:space="preserve">
<style type="text/css">
	.st0{fill:#3D6B76;}
	.st1{fill:none;}
	.st2{fill:#FFFFFF;stroke:#000000;stroke-width:0.5;stroke-miterlimit:10;}
	.st3{fill:#FFFFFF;stroke:#000000;stroke-width:0.25;stroke-miterlimit:10;}
</style>
<sodipodi:namedview  bordercolor="#666666" borderopacity="1" gridtolerance="10" guidetolerance="10" id="namedview4530" inkscape:current-layer="Pagina_inicia_Movil" inkscape:cx="11.991949" inkscape:cy="22.953775" inkscape:pageopacity="0" inkscape:pageshadow="2" inkscape:window-height="715" inkscape:window-maximized="1" inkscape:window-width="1366" inkscape:window-x="-8" inkscape:window-y="-8" inkscape:zoom="3.7942122" objecttolerance="10" pagecolor="#ffffff" showgrid="false">
	</sodipodi:namedview>
<title  id="title4523">servicio-1</title>
<path id="circle4525" class="st0" d="M62.2,31.1c0,17.2-13.9,31.1-31.1,31.1l0,0C13.9,62.2,0,48.3,0,31.1l0,0C0,13.9,13.9,0,31.1,0
	l0,0C48.3,0,62.2,13.9,62.2,31.1L62.2,31.1z"/>
<path class="st1" d="M0,0"/>
<image style="overflow:visible;enable-background:new    ;" width="102" height="102" xlink:href="E8D9E58D.png"  transform="matrix(0.5395 0 0 0.5395 -339.515 18.085)">
</image>
<path class="st2" d="M-293.2-78.4c5.1,0,9.3,1.3,9.3,3c0,1.7-4.2,3-9.3,3c-0.2,0-0.4,0-0.7,0v-6C-293.7-78.4-293.5-78.4-293.2-78.4z
	"/>
<polygon class="st2" points="-297.4,-82.8 -297.4,-79.6 -301,-79.6 -301,-82.8 "/>
<path class="st2" d="M-330.8-104.7h29.8c0.3,0,0.4,0.2,0.4,0.4v18.7c0,0.3-0.2,0.4-0.4,0.4h-30.3c-0.3,0-0.4-0.2-0.4-0.4v-18.2
	C-331.7-104.3-331.3-104.7-330.8-104.7z"/>
<rect x="-296.5" y="-50" class="st2" width="19.9" height="16.3"/>
<rect x="-296.5" y="-67.5" class="st3" width="4.1" height="16.1"/>
<rect x="-288.9" y="-68" class="st2" width="1.7" height="16.3"/>
<rect x="-286.2" y="-67.6" class="st2" width="3.6" height="4.6"/>
<rect x="-286.2" y="-62.5" class="st2" width="3.6" height="2.6"/>
<rect x="-286.2" y="-59.1" class="st2" width="3.6" height="1.7"/>
<rect x="-286.2" y="-56.9" class="st2" width="3.6" height="4.6"/>
<path class="st3" d="M-291.3-67.1h0.5v0.5h-0.5V-67.1z M-290.5-52.3h0.5v0.5h-0.5V-52.3z M-291.3-52.3h0.5v0.5h-0.5V-52.3z
	 M-290.5-53h0.5v0.6h-0.5V-53z M-291.3-53h0.5v0.6h-0.5V-53z M-290.5-53.7h0.5v0.5h-0.5V-53.7z M-291.3-53.7h0.5v0.5h-0.5V-53.7z
	 M-290.5-54.4h0.5v0.5h-0.5V-54.4z M-291.3-54.4h0.5v0.5h-0.5V-54.4z M-290.5-55.1h0.5v0.6h-0.5V-55.1z M-291.3-55.1h0.5v0.6h-0.5
	V-55.1z M-290.5-55.8h0.5v0.5h-0.5V-55.8z M-291.3-55.8h0.5v0.5h-0.5V-55.8z M-290.5-56.5h0.5v0.5h-0.5V-56.5z M-291.3-56.5h0.5v0.5
	h-0.5V-56.5z M-290.5-57.2h0.5v0.6h-0.5V-57.2z M-291.3-57.2h0.5v0.6h-0.5V-57.2z M-290.5-57.9h0.5v0.5h-0.5V-57.9z M-291.3-57.9
	h0.5v0.5h-0.5V-57.9z M-290.5-58.6h0.5v0.6h-0.5V-58.6z M-291.3-58.6h0.5v0.6h-0.5V-58.6z M-290.5-59.3h0.5v0.5h-0.5V-59.3z
	 M-291.3-59.3h0.5v0.5h-0.5V-59.3z M-290.5-60.1h0.5v0.5h-0.5V-60.1z M-291.3-60.1h0.5v0.5h-0.5V-60.1z M-290.5-60.8h0.5v0.6h-0.5
	V-60.8z M-291.3-60.8h0.5v0.6h-0.5V-60.8z M-290.5-61.5h0.5v0.5h-0.5V-61.5z M-291.3-61.5h0.5v0.5h-0.5V-61.5z M-290.5-62.2h0.5v0.6
	h-0.5V-62.2z M-291.3-62.2h0.5v0.6h-0.5V-62.2z M-290.5-62.9h0.5v0.6h-0.5V-62.9z M-291.3-62.9h0.5v0.6h-0.5V-62.9z M-290.5-63.6
	h0.5v0.5h-0.5V-63.6z M-291.3-63.6h0.5v0.5h-0.5V-63.6z M-290.5-64.3h0.5v0.6h-0.5V-64.3z M-291.3-64.3h0.5v0.6h-0.5V-64.3z
	 M-290.5-65h0.5v0.5h-0.5V-65z M-291.3-65h0.5v0.5h-0.5V-65z M-290.5-65.7h0.5v0.5h-0.5V-65.7z M-291.3-65.7h0.5v0.5h-0.5V-65.7z
	 M-290.5-66.4h0.5v0.6h-0.5V-66.4z M-291.3-66.4h0.5v0.6h-0.5V-66.4z M-290.5-67.1h0.5v0.5h-0.5V-67.1z"/>
<rect x="-330.7" y="-78.4" class="st2" width="28.3" height="1.3"/>
<path class="st2" d="M-327.1-80.5c0.2,0,0.3,0.2,0.3,0.3c0,0.1-0.2,0.3-0.3,0.3c-0.2,0-0.3-0.2-0.3-0.3
	C-327.4-80.3-327.3-80.5-327.1-80.5z"/>
<circle class="st2" cx="-325.3" cy="-80.2" r="0.3"/>
<circle class="st2" cx="-323.6" cy="-80.2" r="0.3"/>
<circle class="st2" cx="-321.8" cy="-80.2" r="0.3"/>
<circle class="st2" cx="-320.1" cy="-80.2" r="0.3"/>
<circle class="st2" cx="-318.3" cy="-80.2" r="0.3"/>
<path class="st2" d="M-316.6-80.5c0.2,0,0.3,0.2,0.3,0.3c0,0.1-0.2,0.3-0.3,0.3c-0.2,0-0.3-0.2-0.3-0.3
	C-316.9-80.3-316.8-80.5-316.6-80.5z"/>
<circle class="st2" cx="-314.8" cy="-80.2" r="0.3"/>
<circle class="st2" cx="-313.1" cy="-80.2" r="0.3"/>
<circle class="st2" cx="-311.4" cy="-80.2" r="0.3"/>
<circle class="st2" cx="-309.6" cy="-80.2" r="0.3"/>
<path class="st2" d="M-307.9-80.5c0.2,0,0.3,0.2,0.3,0.3c0,0.1-0.2,0.3-0.3,0.3c-0.2,0-0.3-0.2-0.3-0.3
	C-308.2-80.3-308.1-80.5-307.9-80.5z"/>
<circle class="st2" cx="-306.1" cy="-80.2" r="0.3"/>
<path class="st2" d="M-290-82.5L-290-82.5L-290-82.5L-290-82.5h-0.1c-0.1,0-0.1-0.1-0.1-0.1c0-0.1,0.1-0.1,0.1-0.2l0,0h0.1l0,0l0,0
	h0.1l0,0h0.1l0,0h0.1l0,0c0.1,0,0.1,0.1,0.1,0.1c0,0.1-0.1,0.1-0.2,0.1l0,0l0,0l0,0L-290-82.5L-290-82.5L-290-82.5z M-290.9-82.7
	c0.1,0,0.1,0.1,0.2,0.1c0,0.1-0.1,0.1-0.1,0.1l0,0l0,0h-0.2l0,0l0,0h-0.1l0,0c-0.1,0-0.1-0.1-0.1-0.1c0-0.1,0-0.1,0.1-0.1l0,0l0,0
	h0.1H-290.9L-290.9-82.7L-290.9-82.7L-290.9-82.7z M-291.9-82.5c0.1,0,0.1,0,0.2,0.1c0,0.1,0,0.1-0.1,0.2l0,0l0,0h-0.1l0,0l0,0h-0.1
	l0,0c-0.1,0-0.1,0-0.2-0.1c0-0.1,0-0.2,0.1-0.2l0,0l0,0h0.1l0,0H-291.9L-291.9-82.5L-291.9-82.5L-291.9-82.5z M-292.9-82.2
	c0.1,0,0.2,0,0.2,0.1s0,0.2-0.1,0.2l0,0h-0.1l0,0l0,0l0,0h-0.1l0,0c-0.1,0-0.1,0-0.2-0.1c0-0.1,0-0.1,0.1-0.2l0,0l0,0l0,0H-292.9
	L-292.9-82.2L-292.9-82.2L-292.9-82.2z M-293.8-81.7c0.1,0,0.1,0,0.2,0c0,0.1,0,0.2-0.1,0.2l0,0l0,0l0,0l0,0l0,0l0,0l0,0
	c-0.1,0.1-0.2,0-0.2,0s0-0.1,0-0.2l0,0l0,0H-293.8L-293.8-81.7L-293.8-81.7L-293.8-81.7L-293.8-81.7z M-294.7-81c0.1,0,0.1,0,0.2,0
	c0,0.1,0,0.2,0,0.2l0,0l0,0l0,0l0,0l0,0l0,0l0,0c-0.1,0-0.2,0-0.2,0C-294.8-80.8-294.8-80.9-294.7-81L-294.7-81L-294.7-81L-294.7-81
	L-294.7-81L-294.7-81L-294.7-81L-294.7-81L-294.7-81z M-295.4-80.3c0-0.1,0.1-0.1,0.2,0c0.1,0.1,0.1,0.1,0,0.2l0,0l0,0l0,0l0,0l0,0
	l0,0l0,0c-0.1,0.1-0.1,0.1-0.2,0S-295.5-80.2-295.4-80.3L-295.4-80.3L-295.4-80.3L-295.4-80.3L-295.4-80.3L-295.4-80.3L-295.4-80.3
	L-295.4-80.3z M-296-79.5c0,0,0.1-0.1,0.2,0c0.1,0,0.1,0.1,0.1,0.2l0,0l0,0l0,0l0,0v0.1l0,0l0,0c0,0.1-0.1,0.1-0.2,0
	C-296-79.2-296-79.3-296-79.5L-296-79.5L-296-79.5L-296-79.5L-296-79.5L-296-79.5L-296-79.5L-296-79.5z M-296.5-78.5
	c0-0.1,0.1-0.1,0.2-0.1c0.1,0,0.1,0.1,0.1,0.2l0,0v0.1l0,0l0,0l0,0v0.1l0,0c0,0.1-0.1,0.1-0.2,0.1s-0.1-0.1-0.1-0.2l0,0l0,0l0,0l0,0
	V-78.5L-296.5-78.5L-296.5-78.5z M-296.9-77.6c0-0.1,0.1-0.1,0.2-0.1c0.1,0,0.1,0.1,0.1,0.2l0,0l0,0l0,0v0.1l0,0l0,0l0,0
	c0,0.1-0.1,0.1-0.2,0.1C-296.9-77.3-296.9-77.4-296.9-77.6L-296.9-77.6L-296.9-77.6L-296.9-77.6L-296.9-77.6L-296.9-77.6
	L-296.9-77.6L-296.9-77.6z M-297.1-76.5c0-0.1,0.1-0.1,0.1-0.1c0.1,0,0.1,0.1,0.1,0.2l0,0l0,0v0.1l0,0v0.1l0,0l0,0
	c0,0.1-0.1,0.1-0.2,0.1c-0.1,0-0.1-0.1-0.1-0.2l0,0l0,0v-0.1l0,0L-297.1-76.5L-297.1-76.5L-297.1-76.5z M-297.1-75.5
	c0-0.1,0-0.1,0.1-0.1s0.1,0.1,0.1,0.1v0.1l0,0l0,0v0.1l0,0l0,0c0,0.1-0.1,0.2-0.1,0.2c-0.1,0-0.1-0.1-0.1-0.1l0,0v-0.1l0,0V-75.5
	L-297.1-75.5L-297.1-75.5z M-297.1-74.4c0-0.1,0.1-0.2,0.1-0.2c0.1,0,0.1,0,0.2,0.1v0.1l0,0v0.1l0,0l0,0l0,0c0,0.1,0,0.2-0.1,0.2
	c-0.1,0-0.2,0-0.2-0.1l0,0V-74.4L-297.1-74.4L-297.1-74.4L-297.1-74.4L-297.1-74.4z M-296.8-73.4c0-0.1,0-0.1,0.1-0.2
	c0.1,0,0.1,0,0.2,0.1l0,0l0,0l0,0l0,0v0.1l0,0l0,0c0,0.1,0,0.1-0.1,0.2C-296.7-73.2-296.7-73.2-296.8-73.4L-296.8-73.4L-296.8-73.4
	L-296.8-73.4L-296.8-73.4L-296.8-73.4L-296.8-73.4L-296.8-73.4L-296.8-73.4z M-296.5-72.5c0-0.1,0-0.1,0.1-0.2c0.1,0,0.2,0,0.2,0.1
	l0,0l0,0l0,0l0,0l0,0v0.1l0,0c0,0.1,0,0.2,0,0.2c-0.1,0-0.2,0-0.2-0.1l0,0l0,0l0,0l0,0L-296.5-72.5L-296.5-72.5L-296.5-72.5z
	 M-295.9-71.6c0,0,0-0.1,0-0.2c0.1-0.1,0.2,0,0.2,0l0,0l0,0v0.1l0,0l0,0l0,0l0,0c0.1,0.1,0,0.2,0,0.2
	C-295.8-71.5-295.9-71.5-295.9-71.6L-295.9-71.6L-295.9-71.6L-295.9-71.6L-295.9-71.6L-295.9-71.6L-295.9-71.6L-295.9-71.6
	L-295.9-71.6z M-295.3-70.7c-0.1-0.1-0.1-0.2,0-0.2c0.1-0.1,0.1-0.1,0.2,0l0,0l0,0l0,0l0,0l0,0l0,0l0,0c0.1,0.1,0.1,0.1,0,0.2
	C-295.1-70.7-295.2-70.7-295.3-70.7L-295.3-70.7L-295.3-70.7L-295.3-70.7L-295.3-70.7L-295.3-70.7L-295.3-70.7L-295.3-70.7z
	 M-294.5-70c-0.1-0.1-0.1-0.1,0-0.2c0.1-0.1,0.1-0.1,0.2,0l0,0l0,0l0,0l0,0l0,0l0,0l0,0c0.1,0.1,0.1,0.1,0,0.2
	C-294.3-69.9-294.4-69.9-294.5-70L-294.5-70L-294.5-70L-294.5-70L-294.5-70L-294.5-70L-294.5-70L-294.5-70L-294.5-70z M-293.7-69.4
	c-0.1,0-0.1-0.1,0-0.2c0-0.1,0.1-0.1,0.2,0l0,0l0,0h0.1l0,0l0,0l0,0l0,0c0.1,0,0.1,0.1,0.1,0.2s-0.1,0.1-0.2,0.1l0,0l0,0l0,0
	L-293.7-69.4L-293.7-69.4L-293.7-69.4L-293.7-69.4L-293.7-69.4z M-292.7-68.9c-0.1,0-0.1-0.1-0.1-0.2s0.1-0.1,0.2-0.1l0,0l0,0l0,0
	h0.1l0,0l0,0l0,0c0.1,0,0.1,0.1,0.1,0.2s-0.1,0.1-0.2,0.1l0,0l0,0l0,0H-292.7L-292.7-68.9L-292.7-68.9L-292.7-68.9L-292.7-68.9z
	 M-291.7-68.6c-0.1,0-0.1-0.1-0.1-0.2c0-0.1,0.1-0.1,0.2-0.1l0,0l0,0l0,0h0.1l0,0l0,0c0.1,0,0.1,0.1,0.1,0.2c0,0.1-0.1,0.1-0.2,0.1
	H-291.7L-291.7-68.6L-291.7-68.6L-291.7-68.6L-291.7-68.6L-291.7-68.6z M-290.7-68.4C-290.8-68.4-290.8-68.5-290.7-68.4
	c-0.1-0.2,0-0.2,0-0.2l0,0h0.1l0,0l0,0h0.1l0,0l0,0c0.1,0,0.1,0.1,0.1,0.2s-0.1,0.1-0.1,0.1l0,0h-0.1l0,0L-290.7-68.4L-290.7-68.4
	L-290.7-68.4L-290.7-68.4z M-289.7-68.4c-0.1,0-0.1-0.1-0.2-0.1c0-0.1,0.1-0.1,0.1-0.1h0.1l0,0l0,0h0.1l0,0l0,0
	c0.1,0,0.2,0.1,0.2,0.1c0,0.1-0.1,0.1-0.1,0.1l0,0h-0.1l0,0H-289.7L-289.7-68.4L-289.7-68.4z M-288.6-68.5c-0.1,0-0.2,0-0.2-0.1
	s0-0.2,0.1-0.2l0,0h0.1l0,0l0,0h0.1l0,0c0.1,0,0.1,0,0.2,0.1c0,0.1,0,0.2-0.1,0.2l0,0h-0.1l0,0H-288.6L-288.6-68.5L-288.6-68.5
	L-288.6-68.5z M-287.6-68.8c-0.1,0-0.2,0-0.2-0.1s0-0.2,0.1-0.2l0,0l0,0l0,0l0,0h0.1l0,0l0,0c0.1,0,0.1,0,0.2,0.1
	c0,0.1,0,0.2-0.1,0.2l0,0H-287.6L-287.6-68.8L-287.6-68.8L-287.6-68.8L-287.6-68.8L-287.6-68.8z M-286.7-69.2c-0.1,0-0.1,0-0.2-0.1
	c0-0.1,0-0.1,0.1-0.2l0,0l0,0l0,0h0.1l0,0l0,0l0,0c0.1,0,0.1,0,0.2,0c0,0.1,0,0.2,0,0.2l0,0l0,0h-0.1L-286.7-69.2L-286.7-69.2
	L-286.7-69.2L-286.7-69.2z M-285.8-69.8c-0.1,0.1-0.2,0-0.2,0s0-0.1,0-0.2l0,0l0,0l0,0l0,0l0,0l0,0l0,0c0.1-0.1,0.2,0,0.2,0
	C-285.8-69.9-285.8-69.8-285.8-69.8L-285.8-69.8L-285.8-69.8L-285.8-69.8L-285.8-69.8L-285.8-69.8L-285.8-69.8L-285.8-69.8z
	 M-285-70.4c-0.1,0-0.1,0-0.2,0c0-0.1,0-0.2,0-0.2l0,0l0,0l0,0l0,0l0,0l0,0l0,0c0.1-0.1,0.1-0.1,0.2,0C-285-70.6-285-70.5-285-70.4
	L-285-70.4L-285-70.4L-285-70.4L-285-70.4L-285-70.4L-285-70.4L-285-70.4z M-284.3-71.2c0,0-0.1,0.1-0.2,0c0,0-0.1-0.1,0-0.2l0,0
	l0,0l0,0l0,0l0,0l0,0l0,0c0.1-0.1,0.1-0.1,0.2,0C-284.2-71.4-284.2-71.3-284.3-71.2L-284.3-71.2L-284.3-71.2L-284.3-71.2
	L-284.3-71.2L-284.3-71.2L-284.3-71.2L-284.3-71.2z M-283.8-72.1c0,0.1-0.1,0.1-0.2,0c-0.1,0-0.1-0.1-0.1-0.2l0,0l0,0l0,0l0,0v-0.1
	l0,0l0,0c0-0.1,0.1-0.1,0.2,0C-283.8-72.4-283.8-72.3-283.8-72.1L-283.8-72.1L-283.8-72.1L-283.8-72.1L-283.8-72.1L-283.8-72.1
	L-283.8-72.1L-283.8-72.1z M-283.3-73.1c0,0.1-0.1,0.1-0.2,0.1c-0.1,0-0.1-0.1-0.1-0.2l0,0l0,0v-0.1l0,0l0,0v-0.1l0,0
	c0-0.1,0.1-0.1,0.2-0.1c0.1,0,0.1,0.1,0.1,0.2l0,0l0,0V-73.1L-283.3-73.1L-283.3-73.1L-283.3-73.1L-283.3-73.1L-283.3-73.1z
	 M-283-74.1c0,0.1-0.1,0.1-0.2,0.1c-0.1,0-0.1-0.1-0.1-0.2l0,0l0,0l0,0v-0.1l0,0l0,0l0,0c0-0.1,0.1-0.1,0.2-0.1S-283-74.3-283-74.1
	L-283-74.1L-283-74.1L-283-74.1L-283-74.1L-283-74.1L-283-74.1L-283-74.1L-283-74.1z M-282.9-75.1c0,0.1-0.1,0.1-0.1,0.1
	c-0.1,0-0.1-0.1-0.1-0.2l0,0v-0.1l0,0v-0.1l0,0v-0.1l0,0c0-0.1,0.1-0.1,0.1-0.1c0.1,0,0.1,0.1,0.1,0.2l0,0l0,0v0.1l0,0V-75.1
	L-282.9-75.1L-282.9-75.1z M-282.9-76.1c0,0.1,0,0.1-0.1,0.1s-0.1-0.1-0.1-0.1l0,0v-0.1l0,0l0,0v-0.1l0,0c0-0.1,0.1-0.1,0.1-0.1
	c0.1,0,0.1,0,0.1,0.1l0,0V-76.1L-282.9-76.1L-282.9-76.1L-282.9-76.1L-282.9-76.1z M-283-77.2c0,0.1,0,0.2-0.1,0.2s-0.1,0-0.2-0.1
	l0,0l0,0l0,0v-0.1l0,0l0,0l0,0c0-0.1,0-0.1,0.1-0.2c0.1,0,0.2,0,0.2,0.1l0,0V-77.2L-283-77.2L-283-77.2L-283-77.2L-283-77.2
	L-283-77.2z M-283.3-78.2c0,0.1,0,0.2-0.1,0.2c-0.1,0-0.1,0-0.2-0.1l0,0l0,0l0,0l0,0v-0.1l0,0l0,0c0-0.1,0-0.2,0.1-0.2
	s0.2,0,0.2,0.1l0,0l0,0l0,0V-78.2L-283.3-78.2L-283.3-78.2L-283.3-78.2z M-283.8-79.1c0,0.1,0,0.2,0,0.2c-0.1,0-0.2,0-0.2-0.1l0,0
	l0,0l0,0l0,0l0,0v-0.1l0,0c0-0.1,0-0.1,0-0.2c0.1-0.1,0.2,0,0.2,0l0,0l0,0l0,0V-79.1L-283.8-79.1L-283.8-79.1L-283.8-79.1z
	 M-284.4-80c0,0.1,0,0.2,0,0.2c-0.1,0-0.1,0-0.2,0l0,0l0,0l0,0l0,0l0,0l0,0l0,0c0-0.1,0-0.1,0-0.2C-284.5-80-284.5-80-284.4-80
	L-284.4-80L-284.4-80L-284.4-80L-284.4-80L-284.4-80L-284.4-80L-284.4-80z M-285-80.8c0,0.1,0,0.2,0,0.2c-0.1,0.1-0.1,0.1-0.2,0l0,0
	l0,0l0,0l0,0l0,0l0,0l0,0c-0.1-0.1-0.1-0.1,0-0.2C-285.2-80.9-285.1-80.9-285-80.8L-285-80.8L-285-80.8L-285-80.8L-285-80.8
	L-285-80.8L-285-80.8L-285-80.8z M-285.9-81.4c0.1,0,0.1,0.1,0,0.2c0,0.1-0.1,0.1-0.2,0l0,0l0,0l0,0l0,0l0,0h-0.1l0,0
	c-0.1,0-0.1-0.1-0.1-0.2c0.1-0.1,0.1-0.1,0.2-0.1l0,0l0,0l0,0L-285.9-81.4L-285.9-81.4L-285.9-81.4L-285.9-81.4z M-286.7-82
	c0.1,0,0.1,0.1,0,0.2c0,0.1-0.1,0.1-0.2,0.1l0,0h-0.1l0,0l0,0l0,0l0,0l0,0c-0.1,0-0.1-0.1-0.1-0.2s0.1-0.1,0.2-0.1l0,0l0,0H-286.7
	L-286.7-82L-286.7-82L-286.7-82L-286.7-82z M-287.7-82.4c0.1,0,0.1,0.1,0.1,0.2c0,0.1-0.1,0.1-0.2,0.1l0,0l0,0h-0.1l0,0l0,0l0,0l0,0
	c-0.1,0-0.1-0.1-0.1-0.2C-288-82.4-287.9-82.4-287.7-82.4L-287.7-82.4L-287.7-82.4L-287.7-82.4L-287.7-82.4L-287.7-82.4L-287.7-82.4
	L-287.7-82.4z M-288.7-82.7c0.1,0,0.1,0.1,0.1,0.2s-0.1,0.1-0.2,0.1l0,0l0,0l0,0h-0.1l0,0h-0.1l0,0c-0.1,0-0.1-0.1-0.1-0.2
	s0.1-0.1,0.1-0.1l0,0l0,0l0,0h0.1H-288.7L-288.7-82.7L-288.7-82.7z"/>
<polygon class="st2" points="-340.4,-83.5 -331.6,-83.5 -331.6,-77.6 -340.4,-77.6 "/>
<polygon class="st2" points="-336,-79.7 -333.8,-81.5 -331.6,-83.3 -336,-83.3 -340.4,-83.3 -338.2,-81.5 "/>
<g id="Responsive_Design_2_">
	<path class="st2" d="M-308.5-1.5c0,0.1,0,0.1,0,0.2c0,1.7-4.2,3-9.3,3c-5.1,0-9.3-1.3-9.3-3c0-0.1,0-0.1,0-0.2c0,0,0-0.1,0-0.2
		c0-1.7,4.2-3,9.3-3c5.1,0,9.3,1.4,9.3,3C-308.5-1.5-308.5-1.5-308.5-1.5z"/>
	<path class="st2" d="M-308.5-1.5c0,0.1,0,0.1,0,0.2c0,1.7-4.2,3-9.3,3c-0.2,0-0.4,0-0.7,0v-6.3c0.2,0,0.4,0,0.7,0
		c5.1,0,9.3,1.4,9.3,3C-308.5-1.5-308.5-1.5-308.5-1.5z"/>
	<path class="st2" d="M-318.5-4.6c0.2,0,0.4,0,0.7,0c5,0,9,1.3,9.3,2.9c-0.3,1.6-4.3,2.8-9.3,2.8c-0.2,0-0.4,0-0.7,0V-4.6z"/>
	<ellipse class="st2" cx="-317.8" cy="-2" rx="9.3" ry="3"/>
	<path class="st2" d="M-317.8-5c5.1,0,9.3,1.3,9.3,3s-4.2,3-9.3,3c-0.2,0-0.4,0-0.7,0v-6C-318.2-5-318-5-317.8-5z"/>
	<polygon class="st2" points="-321.1,-10.8 -314.4,-10.8 -314.4,-2.7 -321.1,-2.7 	"/>
	<polygon class="st2" points="-314.4,-6.4 -314.4,-2.7 -318.5,-2.7 -318.5,-6.4 	"/>
	<polygon class="st2" points="-320.6,-10.2 -314.8,-10.2 -314.8,-3.2 -320.6,-3.2 	"/>
	<polygon class="st2" points="-314.8,-6.4 -314.8,-3.2 -318.5,-3.2 -318.5,-6.4 	"/>
	<path class="st2" d="M-334.6-29.6h33.8c0.3,0,0.6,0.3,0.6,0.6v22c0,0.3-0.3,0.6-0.6,0.6h-33.8c-0.3,0-0.6-0.3-0.6-0.6v-22
		C-335.2-29.4-335-29.6-334.6-29.6z"/>
	<path class="st2" d="M-333.3-28.7h31.7c0.2,0,0.5,0.2,0.5,0.5v19.9c0,0.3-0.2,0.5-0.5,0.5h-32.2c-0.3,0-0.5-0.2-0.5-0.5v-19.4
		C-334.3-28.3-333.9-28.7-333.3-28.7z"/>
	<path class="st2" d="M-317.7-7.7c0.3,0,0.5,0.2,0.5,0.5s-0.2,0.5-0.5,0.5c-0.3,0-0.5-0.2-0.5-0.5S-318-7.7-317.7-7.7z"/>
	<circle class="st2" cx="-317.7" cy="-7.2" r="0.3"/>
	<path class="st2" d="M-332.3-28.1h29.8c0.3,0,0.4,0.2,0.4,0.4V-9c0,0.3-0.2,0.4-0.4,0.4h-30.4c-0.3,0-0.4-0.2-0.4-0.4v-18.1
		C-333.3-27.6-332.9-28.1-332.3-28.1z"/>
	<rect x="-330.3" y="-25.7" class="st2" width="19.9" height="16.3"/>
	<rect x="-332.8" y="-25.8" class="st2" width="1.7" height="16.3"/>
	<rect x="-309.8" y="-25.6" class="st2" width="4.1" height="16.1"/>
	<rect x="-304.8" y="-25.8" class="st2" width="1.7" height="16.3"/>
	<rect x="-309.5" y="-25.3" class="st2" width="3.6" height="4.6"/>
	<rect x="-309.5" y="-20.2" class="st2" width="3.6" height="2.6"/>
	<rect x="-309.5" y="-16.9" class="st2" width="3.6" height="1.7"/>
	<rect x="-309.5" y="-14.6" class="st2" width="3.6" height="4.6"/>
	<path class="st2" d="M-304.6-25.3h0.5v0.5h-0.5V-25.3z M-303.8-10.5h0.5v0.5h-0.5V-10.5z M-304.6-10.5h0.5v0.5h-0.5V-10.5z
		 M-303.8-11.2h0.5v0.6h-0.5V-11.2z M-304.6-11.2h0.5v0.6h-0.5V-11.2z M-303.8-11.9h0.5v0.5h-0.5V-11.9z M-304.6-11.9h0.5v0.5h-0.5
		V-11.9z M-303.8-12.6h0.5v0.6h-0.5V-12.6z M-304.6-12.6h0.5v0.6h-0.5V-12.6z M-303.8-13.3h0.5v0.6h-0.5V-13.3z M-304.6-13.3h0.5
		v0.6h-0.5V-13.3z M-303.8-14h0.5v0.5h-0.5V-14z M-304.6-14h0.5v0.5h-0.5V-14z M-303.8-14.7h0.5v0.6h-0.5V-14.7z M-304.6-14.7h0.5
		v0.6h-0.5V-14.7z M-303.8-15.4h0.5v0.6h-0.5V-15.4z M-304.6-15.4h0.5v0.6h-0.5V-15.4z M-303.8-16.1h0.5v0.5h-0.5V-16.1z
		 M-304.6-16.1h0.5v0.5h-0.5V-16.1z M-303.8-16.8h0.5v0.6h-0.5V-16.8z M-304.6-16.8h0.5v0.6h-0.5V-16.8z M-303.8-17.5h0.5v0.5h-0.5
		V-17.5z M-304.6-17.5h0.5v0.5h-0.5V-17.5z M-303.8-18.2h0.5v0.5h-0.5V-18.2z M-304.6-18.2h0.5v0.5h-0.5V-18.2z M-303.8-19h0.5v0.6
		h-0.5V-19z M-304.6-19h0.5v0.6h-0.5V-19z M-303.8-19.6h0.5v0.5h-0.5V-19.6z M-304.6-19.6h0.5v0.5h-0.5V-19.6z M-303.8-20.4h0.5v0.6
		h-0.5V-20.4z M-304.6-20.4h0.5v0.6h-0.5V-20.4z M-303.8-21.1h0.5v0.6h-0.5V-21.1z M-304.6-21.1h0.5v0.6h-0.5V-21.1z M-303.8-21.8
		h0.5v0.5h-0.5V-21.8z M-304.6-21.8h0.5v0.5h-0.5V-21.8z M-303.8-22.5h0.5v0.6h-0.5V-22.5z M-304.6-22.5h0.5v0.6h-0.5V-22.5z
		 M-303.8-23.2h0.5v0.5h-0.5V-23.2z M-304.6-23.2h0.5v0.5h-0.5V-23.2z M-303.8-23.9h0.5v0.5h-0.5V-23.9z M-304.6-23.9h0.5v0.5h-0.5
		V-23.9z M-303.8-24.6h0.5v0.6h-0.5V-24.6z M-304.6-24.6h0.5v0.6h-0.5V-24.6z M-303.8-25.3h0.5v0.5h-0.5V-25.3z"/>
	<rect x="-331.9" y="-27.7" class="st2" width="28.3" height="1.3"/>
	<circle class="st2" cx="-330.9" cy="-27" r="0.3"/>
	<path class="st2" d="M-329.2-27.4c0.2,0,0.3,0.2,0.3,0.3s-0.2,0.3-0.3,0.3c-0.2,0-0.3-0.2-0.3-0.3S-329.4-27.4-329.2-27.4z"/>
	<path class="st2" d="M-327.4-27.4c0.2,0,0.3,0.2,0.3,0.3s-0.2,0.3-0.3,0.3c-0.2,0-0.3-0.2-0.3-0.3S-327.6-27.4-327.4-27.4z"/>
	<path class="st2" d="M-325.7-27.4c0.2,0,0.3,0.2,0.3,0.3s-0.2,0.3-0.3,0.3c-0.2,0-0.3-0.2-0.3-0.3S-325.9-27.4-325.7-27.4z"/>
	<circle class="st2" cx="-324" cy="-27" r="0.3"/>
	<circle class="st2" cx="-322.2" cy="-27" r="0.3"/>
	<circle class="st2" cx="-320.5" cy="-27" r="0.3"/>
	<circle class="st2" cx="-318.7" cy="-27" r="0.3"/>
	<circle class="st2" cx="-317" cy="-27" r="0.3"/>
	<path class="st2" d="M-315.2-27.4c0.2,0,0.3,0.2,0.3,0.3s-0.2,0.3-0.3,0.3c-0.2,0-0.3-0.2-0.3-0.3S-315.4-27.4-315.2-27.4z"/>
	<circle class="st2" cx="-313.5" cy="-27" r="0.3"/>
	<circle class="st2" cx="-311.7" cy="-27" r="0.3"/>
	<circle class="st2" cx="-310" cy="-27" r="0.3"/>
	<circle class="st2" cx="-308.3" cy="-27" r="0.3"/>
	<path class="st2" d="M-306.5-27.4c0.2,0,0.3,0.2,0.3,0.3s-0.2,0.3-0.3,0.3c-0.2,0-0.3-0.2-0.3-0.3S-306.7-27.4-306.5-27.4z"/>
	<circle class="st2" cx="-304.8" cy="-27" r="0.3"/>
	<polygon class="st2" points="-320.4,-22.4 -318.3,-21.2 -316.2,-20 -316.2,-17.6 -316.2,-15.2 -318.3,-14 -320.4,-12.8 -322.4,-14 
		-324.5,-15.2 -324.5,-17.6 -324.5,-20 -322.4,-21.2 	"/>
	<polygon class="st2" points="-320.4,-22.4 -318.3,-21.2 -316.2,-20 -316.2,-17.9 -324.5,-17.9 -324.5,-20 -322.4,-21.2 	"/>
	<path class="st2" d="M-320.4-24.5L-320.4-24.5L-320.4-24.5L-320.4-24.5h-0.1c-0.1,0-0.1-0.1-0.1-0.1c0-0.1,0.1-0.1,0.1-0.2l0,0h0.1
		l0,0l0,0h0.1l0,0h0.1l0,0h0.1l0,0c0.1,0,0.1,0.1,0.1,0.1c0,0.1-0.1,0.1-0.2,0.1l0,0l0,0l0,0h-0.2V-24.5L-320.4-24.5z M-321.3-24.7
		c0.1,0,0.1,0.1,0.2,0.1c0,0.1-0.1,0.1-0.1,0.1l0,0l0,0h-0.1l0,0l0,0h-0.1l0,0c-0.1,0-0.1-0.1-0.1-0.1c0-0.1,0-0.1,0.1-0.1l0,0l0,0
		H-321.3L-321.3-24.7L-321.3-24.7L-321.3-24.7L-321.3-24.7z M-322.3-24.5c0.1,0,0.1,0,0.2,0.1c0,0.1,0,0.1-0.1,0.2l0,0l0,0h-0.1l0,0
		l0,0h-0.1l0,0c-0.1,0-0.1,0-0.2-0.1c0-0.1,0-0.2,0.1-0.2l0,0l0,0h0.1l0,0H-322.3L-322.3-24.5L-322.3-24.5L-322.3-24.5z
		 M-323.3-24.2c0.1,0,0.2,0,0.2,0.1s0,0.2-0.1,0.2l0,0h-0.1l0,0l0,0l0,0h-0.1l0,0c-0.1,0-0.1,0-0.2-0.1c0-0.1,0-0.1,0.1-0.2l0,0l0,0
		l0,0H-323.3L-323.3-24.2L-323.3-24.2L-323.3-24.2z M-324.2-23.7c0.1,0,0.1,0,0.2,0c0,0.1,0,0.2-0.1,0.2l0,0l0,0l0,0l0,0l0,0l0,0
		l0,0c-0.1,0.1-0.2,0-0.2,0S-324.3-23.6-324.2-23.7L-324.2-23.7L-324.2-23.7L-324.2-23.7L-324.2-23.7L-324.2-23.7L-324.2-23.7
		L-324.2-23.7z M-325-23c0.1,0,0.1,0,0.2,0c0,0.1,0,0.2,0,0.2l0,0l0,0l0,0l0,0l0,0l0,0l0,0c-0.1,0-0.2,0-0.2,0
		C-325.1-22.8-325.1-22.9-325-23L-325-23L-325-23L-325-23L-325-23L-325-23L-325-23L-325-23L-325-23z M-325.8-22.3
		c0-0.1,0.1-0.1,0.2,0s0.1,0.1,0,0.2l0,0l0,0l0,0l0,0l0,0l0,0l0,0c-0.1,0.1-0.1,0.1-0.2,0C-325.9-22.2-325.9-22.2-325.8-22.3
		L-325.8-22.3L-325.8-22.3L-325.8-22.3L-325.8-22.3L-325.8-22.3L-325.8-22.3L-325.8-22.3z M-326.4-21.5c0,0,0.1-0.1,0.2,0
		c0.1,0,0.1,0.1,0.1,0.2l0,0l0,0l0,0l0,0v0.1l0,0l0,0c0,0.1-0.1,0.1-0.2,0C-326.4-21.2-326.4-21.3-326.4-21.5L-326.4-21.5
		L-326.4-21.5L-326.4-21.5L-326.4-21.5L-326.4-21.5L-326.4-21.5L-326.4-21.5z M-326.9-20.5c0-0.1,0.1-0.1,0.2-0.1
		c0.1,0,0.1,0.1,0.1,0.2l0,0v0.1l0,0l0,0l0,0v0.1l0,0c0,0.1-0.1,0.1-0.2,0.1c-0.1,0-0.1-0.1-0.1-0.2l0,0l0,0l0,0l0,0V-20.5
		L-326.9-20.5L-326.9-20.5z M-327.3-19.6c0-0.1,0.1-0.1,0.2-0.1s0.1,0.1,0.1,0.2l0,0l0,0l0,0v0.1l0,0l0,0l0,0c0,0.1-0.1,0.1-0.2,0.1
		C-327.3-19.3-327.3-19.4-327.3-19.6L-327.3-19.6L-327.3-19.6L-327.3-19.6L-327.3-19.6L-327.3-19.6L-327.3-19.6L-327.3-19.6z
		 M-327.5-18.5c0-0.1,0.1-0.1,0.1-0.1c0.1,0,0.1,0.1,0.1,0.2l0,0l0,0v0.1l0,0v0.1l0,0l0,0c0,0.1-0.1,0.1-0.2,0.1s-0.1-0.1-0.1-0.2
		l0,0l0,0v-0.1l0,0L-327.5-18.5L-327.5-18.5L-327.5-18.5z M-327.5-17.5c0-0.1,0-0.1,0.1-0.1s0.1,0.1,0.1,0.1v0.1l0,0l0,0v0.1l0,0
		l0,0c0,0.1-0.1,0.2-0.1,0.2c-0.1,0-0.1-0.1-0.1-0.1l0,0v-0.1l0,0V-17.5L-327.5-17.5L-327.5-17.5z M-327.5-16.5
		c0-0.1,0.1-0.2,0.1-0.2c0.1,0,0.1,0,0.2,0.1v0.1l0,0v0.1l0,0l0,0l0,0c0,0.1,0,0.2-0.1,0.2c-0.1,0-0.2,0-0.2-0.1l0,0V-16.5
		L-327.5-16.5L-327.5-16.5L-327.5-16.5L-327.5-16.5z M-327.2-15.5c0-0.1,0-0.1,0.1-0.2c0.1,0,0.1,0,0.2,0.1l0,0l0,0l0,0l0,0v0.1l0,0
		l0,0c0,0.1,0,0.1-0.1,0.2C-327.1-15.3-327.1-15.3-327.2-15.5L-327.2-15.5L-327.2-15.5L-327.2-15.5L-327.2-15.5L-327.2-15.5
		L-327.2-15.5L-327.2-15.5L-327.2-15.5z M-326.8-14.5c0-0.1,0-0.1,0.1-0.2c0.1,0,0.2,0,0.2,0.1l0,0l0,0l0,0l0,0l0,0v0.1l0,0
		c0,0.1,0,0.2,0,0.2C-326.6-14.3-326.7-14.3-326.8-14.5L-326.8-14.5L-326.8-14.5L-326.8-14.5L-326.8-14.5L-326.8-14.5L-326.8-14.5
		L-326.8-14.5z M-326.3-13.6c0,0,0-0.1,0-0.2c0.1-0.1,0.2,0,0.2,0l0,0l0,0v0.1l0,0l0,0l0,0l0,0c0.1,0.1,0,0.2,0,0.2
		C-326.2-13.5-326.3-13.5-326.3-13.6L-326.3-13.6L-326.3-13.6L-326.3-13.6L-326.3-13.6L-326.3-13.6L-326.3-13.6L-326.3-13.6
		L-326.3-13.6z M-325.6-12.7c-0.1-0.1-0.1-0.2,0-0.2c0.1-0.1,0.1-0.1,0.2,0l0,0l0,0l0,0l0,0l0,0l0,0l0,0c0.1,0.1,0.1,0.1,0,0.2
		C-325.4-12.7-325.5-12.7-325.6-12.7L-325.6-12.7L-325.6-12.7L-325.6-12.7L-325.6-12.7L-325.6-12.7L-325.6-12.7L-325.6-12.7z
		 M-324.9-12c-0.1-0.1-0.1-0.1,0-0.2c0.1-0.1,0.1-0.1,0.2,0l0,0l0,0l0,0l0,0l0,0l0,0l0,0c0.1,0.1,0.1,0.1,0,0.2
		C-324.7-11.9-324.8-11.9-324.9-12L-324.9-12L-324.9-12L-324.9-12L-324.9-12L-324.9-12L-324.9-12L-324.9-12L-324.9-12z M-324-11.4
		c-0.1,0-0.1-0.1,0-0.2c0-0.1,0.1-0.1,0.2,0l0,0l0,0h0.1l0,0l0,0l0,0l0,0c0.1,0,0.1,0.1,0.1,0.2c0,0.1-0.1,0.1-0.2,0.1l0,0l0,0l0,0
		L-324-11.4L-324-11.4L-324-11.4L-324-11.4L-324-11.4z M-323.1-11c-0.1,0-0.1-0.1-0.1-0.2c0-0.1,0.1-0.1,0.2-0.1l0,0l0,0l0,0h0.1
		l0,0l0,0l0,0c0.1,0,0.1,0.1,0.1,0.2c0,0.1-0.1,0.1-0.2,0.1l0,0l0,0l0,0H-323.1L-323.1-11L-323.1-11L-323.1-11L-323.1-11z
		 M-322.1-10.6c-0.1,0-0.1-0.1-0.1-0.2c0-0.1,0.1-0.1,0.2-0.1l0,0l0,0l0,0h0.1l0,0l0,0c0.1,0,0.1,0.1,0.1,0.2c0,0.1-0.1,0.1-0.2,0.1
		H-322.1L-322.1-10.6L-322.1-10.6L-322.1-10.6L-322.1-10.6L-322.1-10.6z M-321.1-10.5c-0.1,0-0.1-0.1-0.1-0.1c0-0.1,0.1-0.1,0.1-0.1
		l0,0h0.1l0,0l0,0h0.1l0,0l0,0c0.1,0,0.1,0.1,0.1,0.2c0,0.1-0.1,0.1-0.1,0.1l0,0h-0.1l0,0l0,0h-0.1V-10.5L-321.1-10.5z M-320-10.4
		c-0.1,0-0.1-0.1-0.2-0.1c0-0.1,0.1-0.1,0.1-0.1h0.1l0,0l0,0h0.1l0,0l0,0c0.1,0,0.2,0.1,0.2,0.1c0,0.1-0.1,0.1-0.1,0.1l0,0h-0.1l0,0
		H-320L-320-10.4L-320-10.4z M-319-10.5c-0.1,0-0.2,0-0.2-0.1s0-0.2,0.1-0.2l0,0h0.1l0,0l0,0h0.1l0,0c0.1,0,0.1,0,0.2,0.1
		c0,0.1,0,0.2-0.1,0.2l0,0h-0.1l0,0H-319L-319-10.5L-319-10.5L-319-10.5z M-318-10.8c-0.1,0-0.2,0-0.2-0.1s0-0.2,0.1-0.2l0,0l0,0
		l0,0l0,0h0.1l0,0l0,0c0.1,0,0.1,0,0.2,0.1c0,0.1,0,0.2-0.1,0.2l0,0H-318L-318-10.8L-318-10.8L-318-10.8L-318-10.8L-318-10.8z
		 M-317.1-11.2c-0.1,0-0.1,0-0.2-0.1c0-0.1,0-0.1,0.1-0.2l0,0l0,0l0,0h0.1l0,0l0,0l0,0c0.1,0,0.1,0,0.2,0c0,0.1,0,0.2,0,0.2l0,0l0,0
		h-0.1L-317.1-11.2L-317.1-11.2L-317.1-11.2L-317.1-11.2z M-316.2-11.8c-0.1,0.1-0.2,0-0.2,0s0-0.1,0-0.2l0,0l0,0l0,0l0,0l0,0l0,0
		l0,0c0.1-0.1,0.2,0,0.2,0C-316.2-11.9-316.2-11.8-316.2-11.8L-316.2-11.8L-316.2-11.8L-316.2-11.8L-316.2-11.8L-316.2-11.8
		L-316.2-11.8L-316.2-11.8z M-315.4-12.5c-0.1,0-0.1,0-0.2,0c0-0.1,0-0.2,0-0.2l0,0l0,0l0,0l0,0l0,0l0,0l0,0c0.1-0.1,0.1-0.1,0.2,0
		C-315.4-12.7-315.4-12.6-315.4-12.5L-315.4-12.5L-315.4-12.5L-315.4-12.5L-315.4-12.5L-315.4-12.5L-315.4-12.5L-315.4-12.5z
		 M-314.7-13.2c0,0-0.1,0.1-0.2,0c0,0-0.1-0.1,0-0.2l0,0l0,0l0,0l0,0l0,0l0,0l0,0c0.1-0.1,0.1-0.1,0.2,0
		C-314.6-13.4-314.6-13.3-314.7-13.2L-314.7-13.2L-314.7-13.2L-314.7-13.2L-314.7-13.2L-314.7-13.2L-314.7-13.2L-314.7-13.2z
		 M-314.1-14.1c0,0.1-0.1,0.1-0.2,0c-0.1,0-0.1-0.1-0.1-0.2l0,0l0,0l0,0l0,0v-0.1l0,0l0,0c0-0.1,0.1-0.1,0.2,0
		C-314.1-14.4-314.1-14.3-314.1-14.1L-314.1-14.1L-314.1-14.1L-314.1-14.1L-314.1-14.1L-314.1-14.1L-314.1-14.1L-314.1-14.1z
		 M-313.7-15.1c0,0.1-0.1,0.1-0.2,0.1s-0.1-0.1-0.1-0.2l0,0l0,0v-0.1l0,0l0,0v-0.1l0,0c0-0.1,0.1-0.1,0.2-0.1c0.1,0,0.1,0.1,0.1,0.2
		l0,0l0,0V-15.1L-313.7-15.1L-313.7-15.1L-313.7-15.1L-313.7-15.1L-313.7-15.1z M-313.4-16.1c0,0.1-0.1,0.1-0.2,0.1
		s-0.1-0.1-0.1-0.2l0,0l0,0l0,0v-0.1l0,0l0,0l0,0c0-0.1,0.1-0.1,0.2-0.1S-313.4-16.3-313.4-16.1L-313.4-16.1L-313.4-16.1
		L-313.4-16.1L-313.4-16.1L-313.4-16.1L-313.4-16.1L-313.4-16.1L-313.4-16.1z M-313.3-17.1c0,0.1-0.1,0.1-0.1,0.1
		c-0.1,0-0.1-0.1-0.1-0.2l0,0v-0.1l0,0v-0.1l0,0v-0.1l0,0c0-0.1,0.1-0.1,0.1-0.1c0.1,0,0.1,0.1,0.1,0.2l0,0l0,0v0.1l0,0V-17.1
		L-313.3-17.1L-313.3-17.1z M-313.3-18.1c0,0.1,0,0.1-0.1,0.1s-0.1-0.1-0.1-0.1l0,0v-0.1l0,0l0,0v-0.1l0,0c0-0.1,0.1-0.1,0.1-0.1
		c0.1,0,0.1,0,0.1,0.1l0,0V-18.1L-313.3-18.1L-313.3-18.1L-313.3-18.1L-313.3-18.1z M-313.4-19.2c0,0.1,0,0.2-0.1,0.2
		s-0.1,0-0.2-0.1l0,0l0,0l0,0v-0.1l0,0l0,0l0,0c0-0.1,0-0.1,0.1-0.2C-313.5-19.4-313.4-19.4-313.4-19.2L-313.4-19.2L-313.4-19.2
		L-313.4-19.2L-313.4-19.2L-313.4-19.2L-313.4-19.2L-313.4-19.2z M-313.7-20.2c0,0.1,0,0.2-0.1,0.2c-0.1,0-0.1,0-0.2-0.1l0,0l0,0
		l0,0l0,0v-0.1l0,0l0,0c0-0.1,0-0.2,0.1-0.2S-313.7-20.4-313.7-20.2L-313.7-20.2L-313.7-20.2L-313.7-20.2L-313.7-20.2L-313.7-20.2
		L-313.7-20.2L-313.7-20.2z M-314.2-21.1c0,0.1,0,0.2,0,0.2c-0.1,0-0.2,0-0.2-0.1l0,0l0,0l0,0l0,0l0,0v-0.1l0,0c0-0.1,0-0.1,0-0.2
		c0.1-0.1,0.2,0,0.2,0l0,0l0,0l0,0V-21.1L-314.2-21.1L-314.2-21.1L-314.2-21.1z M-314.7-22c0,0.1,0,0.2,0,0.2c-0.1,0-0.1,0-0.2,0
		l0,0l0,0l0,0l0,0l0,0l0,0l0,0c0-0.1,0-0.1,0-0.2C-314.8-22-314.8-22-314.7-22L-314.7-22L-314.7-22L-314.7-22L-314.7-22L-314.7-22
		L-314.7-22L-314.7-22z M-315.4-22.8c0,0.1,0,0.2,0,0.2c-0.1,0.1-0.1,0.1-0.2,0l0,0l0,0l0,0l0,0l0,0l0,0l0,0c-0.1-0.1-0.1-0.1,0-0.2
		C-315.6-22.9-315.5-22.9-315.4-22.8L-315.4-22.8L-315.4-22.8L-315.4-22.8L-315.4-22.8L-315.4-22.8L-315.4-22.8L-315.4-22.8z
		 M-316.2-23.5c0.1,0,0.1,0.1,0,0.2c0,0.1-0.1,0.1-0.2,0l0,0l0,0l0,0l0,0l0,0h-0.1l0,0c-0.1,0-0.1-0.1-0.1-0.2
		c0.1-0.1,0.1-0.1,0.2-0.1l0,0l0,0l0,0L-316.2-23.5L-316.2-23.5L-316.2-23.5L-316.2-23.5z M-317.1-24c0.1,0,0.1,0.1,0,0.2
		c0,0.1-0.1,0.1-0.2,0.1l0,0h-0.1l0,0l0,0l0,0l0,0l0,0c-0.1,0-0.1-0.1-0.1-0.2c0-0.1,0.1-0.1,0.2-0.1l0,0l0,0h0.1H-317.1L-317.1-24
		L-317.1-24L-317.1-24z M-318.1-24.4c0.1,0,0.1,0.1,0.1,0.2c0,0.1-0.1,0.1-0.2,0.1l0,0l0,0h-0.1l0,0l0,0l0,0l0,0
		c-0.1,0-0.1-0.1-0.1-0.2c0-0.1,0.1-0.1,0.2-0.1l0,0l0,0H-318.1L-318.1-24.4L-318.1-24.4L-318.1-24.4L-318.1-24.4z M-319.1-24.7
		c0.1,0,0.1,0.1,0.1,0.2c0,0.1-0.1,0.1-0.2,0.1l0,0l0,0l0,0h-0.1l0,0h-0.1l0,0c-0.1,0-0.1-0.1-0.1-0.2c0-0.1,0.1-0.1,0.1-0.1l0,0
		l0,0l0,0h0.1H-319.1L-319.1-24.7L-319.1-24.7z"/>
	<path class="st2" d="M-300.8-30.2h-33.8c-0.7,0-1.2,0.5-1.2,1.2v22c0,0.7,0.5,1.2,1.2,1.2h12.9v0.6c-1.9,0.3-5.9,1.2-5.9,3.3
		c0,0.1,0,0.1,0,0.2s0,0.1,0,0.2s0,0.1,0,0.2s0,0.1,0,0.2c0,1.4,1.8,2.2,2.9,2.6c1.9,0.7,4.2,0.9,6.3,1c0.2,0,0.4,0,0.7,0
		c2.2,0,4.7-0.3,6.8-0.9c1.1-0.4,3.1-1.2,3.1-2.7c0-0.1,0-0.1,0-0.2c0,0,0-0.1,0-0.2s0-0.1,0-0.2s0-0.1,0-0.2c0-2.1-4-3-5.9-3.3
		v-0.6h13c0.7,0,1.2-0.5,1.2-1.2v-22C-299.7-29.7-300.2-30.2-300.8-30.2z M-300.2-7c0,0.3-0.3,0.6-0.6,0.6h-13.6v1.7
		c3.5,0.4,5.9,1.5,5.9,2.8c0,0.1,0,0.1,0,0.2s0,0.1,0,0.2s0,0.1,0,0.2s0,0.1,0,0.2c0,1.7-4.2,3-9.3,3c-0.2,0-0.4,0-0.7,0
		c-4.8-0.1-8.6-1.4-8.6-3c0-0.1,0-0.1,0-0.2c0,0,0-0.1,0-0.2s0-0.1,0-0.2s0-0.1,0-0.2c0-1.3,2.5-2.4,5.9-2.8v-1.7h-13.4
		c-0.3,0-0.6-0.3-0.6-0.6v-22c0-0.3,0.3-0.6,0.6-0.6h33.8c0.3,0,0.6,0.3,0.6,0.6V-7L-300.2-7z"/>
	<path class="st2" d="M-340-32.4h9.9c1.4,0,2.5,1.1,2.5,2.5v22.7c0,1.4-1.1,2.5-2.5,2.5h-9.9c-1.4,0-2.5-1.1-2.5-2.5v-22.7
		C-342.5-31.2-341.4-32.4-340-32.4z"/>
	<path class="st2" d="M-339.8-30.7h9.5c0.9,0,1.7,0.8,1.7,1.7v19.4c0,1-0.8,1.7-1.7,1.7h-9.5c-0.9,0-1.7-0.7-1.7-1.7V-29
		C-341.5-29.9-340.7-30.7-339.8-30.7z"/>
	<path class="st2" d="M-341.2-7.1h1.8c0.2,0,0.3,0.1,0.3,0.3l0,0c0,0.2-0.1,0.3-0.3,0.3h-1.8c-0.2,0-0.3-0.2-0.3-0.3l0,0
		C-341.5-7-341.3-7.1-341.2-7.1z"/>
	<path class="st2" d="M-335.8-7.1h2c0.3,0,0.5,0.2,0.5,0.5l0,0c0,0.3-0.2,0.5-0.5,0.5h-2c-0.2,0-0.5-0.3-0.5-0.5l0,0
		C-336.3-6.9-336.1-7.1-335.8-7.1z"/>
	<path class="st2" d="M-330.7-7.1h1.7c0.2,0,0.3,0.1,0.3,0.3l0,0c0,0.2-0.2,0.3-0.3,0.3h-1.7c-0.2,0-0.3-0.2-0.3-0.3l0,0
		C-331-7-330.9-7.1-330.7-7.1z"/>
	<path class="st2" d="M-337.6-31.9h5.1c0.2,0,0.3,0.1,0.3,0.3l0,0c0,0.2-0.1,0.3-0.3,0.3h-5.1c-0.2,0-0.3-0.1-0.3-0.3l0,0
		C-337.9-31.8-337.8-31.9-337.6-31.9z"/>
	<path class="st2" d="M-335.7-7h1.7c0.3,0,0.5,0.2,0.5,0.4l0,0c0,0.2-0.2,0.4-0.5,0.4h-1.8c-0.3,0-0.4-0.2-0.4-0.4l0,0
		C-336.2-6.8-336-7-335.7-7z"/>
	<path class="st2" d="M-337.9,5.6c0-1,0.1-2.1,0.3-3c0.5-3.4,2.7-6,3.5-6.9c0,0,1.9-2.1,1.4-4.6c-0.4-2.2-0.8-5.9-0.7-8
		c0.3-3-2-4.8-2.5-0.5c-0.5,4.5-2.6,14.4-6.6,8.1v-9.8c0,0-1.2-0.2-1.9,1.6c-0.7,1.8-5.1,4.1-5,5.8c0,1.7,1.7,3.4,2.3,7.7
		c0.1,1.1,0.9,2.5,1.6,4.1C-343.3,2.4-340.7,4.2-337.9,5.6z"/>
	<polygon class="st2" points="-339,-27.5 -330.3,-27.5 -330.3,-21.7 -339,-21.7 	"/>
	<polygon class="st2" points="-334.6,-23.9 -332.5,-25.7 -330.3,-27.5 -334.6,-27.5 -339,-27.5 -336.8,-25.7 	"/>
	<path class="st2" d="M-343.4-19.8v-10c0-1.9,1.5-3.4,3.4-3.4h9.9c1.9,0,3.4,1.5,3.4,3.4v22.7c0,1.9-1.5,3.4-3.4,3.4h-3.2
		c-0.1,0.1-0.1,0.1-0.2,0.2c-1.6,1.8-2.9,3.9-3.3,6.4c-0.1,0.9-0.2,2-0.2,3.1c-0.3-0.1-0.6-0.3-0.9-0.4c0-1,0.1-2.1,0.3-3
		c0.5-3.4,2.7-6,3.5-6.9c0,0,0.2-0.2,0.4-0.5h3.7c1.4,0,2.5-1.1,2.5-2.5v-22.6c0-1.4-1.1-2.5-2.5-2.5h-10c-1.4,0-2.5,1.1-2.5,2.5
		v10.8c-0.1,0-1.2-0.1-1.8,1.6c-0.7,1.8-5.1,4.1-5,5.8c0,1.7,1.7,3.4,2.3,7.7c0.1,1.1,0.9,2.5,1.6,4.1c-0.7-0.7-1.4-1.5-2-2.3
		c-0.2-0.5-0.4-1.1-0.5-1.6c-0.2-1.7-0.7-3.1-1.3-4.6c-0.4-1-1-2.1-1-3.2c0-1.5,1.9-2.9,2.9-3.8c0.6-0.5,1.9-1.6,2.2-2.3
		c0.3-0.8,0.8-1.5,1.5-1.9C-343.6-19.7-343.5-19.8-343.4-19.8z"/>
</g>
<g>
	<path class="st2" d="M44.4,42.7C44.4,42.8,44.4,42.8,44.4,42.7c0,1.6-3.8,2.9-8.5,2.9s-8.5-1.2-8.5-2.8c0-0.1,0-0.1,0-0.1v-0.1
		c0-1.5,3.8-2.8,8.5-2.8S44.4,41.1,44.4,42.7C44.4,42.6,44.4,42.7,44.4,42.7z"/>
	<path class="st2" d="M44.4,42.7C44.4,42.8,44.4,42.8,44.4,42.7c0,1.6-3.8,2.9-8.5,2.9c-0.2,0-0.4,0-0.6,0v-5.8c0.2,0,0.4,0,0.6,0
		c4.7,0,8.5,1.3,8.5,2.8V42.7z"/>
	<path class="st2" d="M35.3,39.8c0.2,0,0.4,0,0.6,0c4.6,0,8.3,1.2,8.5,2.6c-0.3,1.5-4,2.6-8.5,2.6c-0.2,0-0.4,0-0.6,0V39.8z"/>
	<ellipse class="st2" cx="35.9" cy="42.2" rx="8.5" ry="2.8"/>
	<polygon class="st2" points="32.8,34.1 39,34.1 39,41.5 32.8,41.5 	"/>
	<polygon class="st2" points="39,38.1 39,41.5 35.3,41.5 35.3,38.1 	"/>
	<polygon class="st2" points="33.3,34.6 38.6,34.6 38.6,41.1 33.3,41.1 	"/>
	<path class="st2" d="M20.4,16.8h31c0.3,0,0.6,0.3,0.6,0.6v20.2c0,0.3-0.3,0.6-0.6,0.6h-31c-0.3,0-0.6-0.3-0.6-0.6V17.4
		C19.9,17.1,20.1,16.8,20.4,16.8z"/>
	<path class="st2" d="M21.7,17.6h29.1c0.2,0,0.4,0.2,0.4,0.5v18.3c0,0.3-0.2,0.5-0.4,0.5H21.2c-0.3,0-0.5-0.2-0.5-0.5V18.6
		C20.7,18.1,21.1,17.6,21.7,17.6z"/>
	<path class="st2" d="M36,37c0.2,0,0.4,0.2,0.4,0.4s-0.2,0.4-0.4,0.4s-0.4-0.2-0.4-0.4C35.5,37.1,35.7,37,36,37z"/>
	<circle class="st2" cx="36" cy="37.4" r="0.3"/>
	<rect x="22.1" y="20.4" class="st2" width="1.6" height="15"/>
	<circle class="st2" cx="23.8" cy="19.2" r="0.3"/>
	<path class="st2" d="M25.4,18.9c0.2,0,0.3,0.1,0.3,0.3s-0.1,0.3-0.3,0.3c-0.2,0-0.3-0.1-0.3-0.3S25.3,18.9,25.4,18.9z"/>
	<path class="st2" d="M27,18.9c0.2,0,0.3,0.1,0.3,0.3s-0.1,0.3-0.3,0.3c-0.2,0-0.3-0.1-0.3-0.3S26.9,18.9,27,18.9z"/>
	<polygon class="st2" points="35.9,23.5 37.8,24.5 39.7,25.6 39.7,27.8 39.7,30.1 37.8,31.1 35.9,32.2 34,31.1 32.1,30.1 32.1,27.8 
		32.1,25.6 34,24.5 	"/>
	<polygon class="st2" points="35.9,23.5 37.8,24.5 39.7,25.6 39.7,27.6 32.1,27.6 32.1,25.6 34,24.5 	"/>
	<path class="st2" d="M51.5,16.3h-31c-0.6,0-1.1,0.5-1.1,1.1v20.2c0,0.6,0.5,1.1,1.1,1.1h11.9v0.6c-1.8,0.3-5.4,1.1-5.4,3
		c0,0.1,0,0.1,0,0.2c0,0.1,0,0.1,0,0.1c0,0.1,0,0.1,0,0.1c0,0.1,0,0.1,0,0.1c0,1.3,1.6,2,2.6,2.4c1.8,0.6,3.9,0.9,5.8,0.9
		c0.2,0,0.4,0,0.6,0c2,0,4.3-0.2,6.2-0.9c1-0.3,2.8-1.1,2.8-2.4c0-0.1,0-0.1,0-0.1v-0.1c0-0.1,0-0.1,0-0.1c0-0.1,0-0.1,0-0.2
		c0-2-3.6-2.8-5.4-3v-0.6h12c0.6,0,1.1-0.5,1.1-1.1V17.4C52.5,16.8,52.1,16.3,51.5,16.3z M52,37.6c0,0.3-0.3,0.6-0.6,0.6H39v1.5
		c3.2,0.4,5.4,1.4,5.4,2.6c0,0.1,0,0.1,0,0.2c0,0.1,0,0.1,0,0.1c0,0.1,0,0.1,0,0.1c0,0.1,0,0.1,0,0.1c0,1.5-3.8,2.8-8.5,2.8
		c-0.2,0-0.4,0-0.6,0c-4.4-0.1-7.9-1.3-7.9-2.8c0-0.1,0-0.1,0-0.1v-0.1c0-0.1,0-0.1,0-0.1c0-0.1,0-0.1,0-0.2c0-1.2,2.3-2.2,5.5-2.6
		v-1.5H20.4c-0.3,0-0.6-0.3-0.6-0.6V17.4c0-0.3,0.3-0.6,0.6-0.6h31c0.3,0,0.6,0.3,0.6,0.6V37.6L52,37.6z"/>
	<path class="st2" d="M15.5,14.3h9.1c1.3,0,2.3,1,2.3,2.3v20.8c0,1.3-1,2.3-2.3,2.3h-9.1c-1.3,0-2.3-1-2.3-2.3V16.6
		C13.2,15.3,14.2,14.3,15.5,14.3z"/>
	<path class="st2" d="M15.7,15.9h8.7c0.9,0,1.6,0.7,1.6,1.6v17.8c0,0.9-0.7,1.6-1.6,1.6h-8.7c-0.9,0-1.6-0.7-1.6-1.6V17.4
		C14.1,16.6,14.8,15.9,15.7,15.9z"/>
	<path class="st2" d="M14.4,37.5H16c0.2,0,0.3,0.1,0.3,0.3l0,0c0,0.1-0.1,0.3-0.3,0.3h-1.6c-0.1,0-0.3-0.1-0.3-0.3l0,0
		C14.1,37.6,14.3,37.5,14.4,37.5z"/>
	<path class="st2" d="M19.3,37.5h1.8c0.3,0,0.5,0.2,0.5,0.5l0,0c0,0.2-0.2,0.5-0.5,0.5h-1.8c-0.2,0-0.5-0.2-0.5-0.5l0,0
		C18.9,37.7,19.1,37.5,19.3,37.5z"/>
	<path class="st2" d="M24.1,37.5h1.6c0.2,0,0.3,0.1,0.3,0.3l0,0c0,0.1-0.1,0.3-0.3,0.3h-1.6c-0.2,0-0.3-0.1-0.3-0.3l0,0
		C23.8,37.6,23.9,37.5,24.1,37.5z"/>
	<path class="st2" d="M17.7,14.7h4.7c0.2,0,0.3,0.1,0.3,0.3l0,0c0,0.2-0.1,0.3-0.3,0.3h-4.7c-0.2,0-0.3-0.1-0.3-0.3l0,0
		C17.4,14.9,17.5,14.7,17.7,14.7z"/>
	<path class="st2" d="M19.4,37.6H21c0.3,0,0.4,0.2,0.4,0.4l0,0c0,0.2-0.2,0.3-0.4,0.3h-1.6c-0.2,0-0.4-0.1-0.4-0.3l0,0
		C19,37.8,19.2,37.6,19.4,37.6z"/>
	<path class="st2" d="M17.5,49.2c0-0.9,0.1-1.9,0.2-2.8c0.5-3.2,2.5-5.5,3.2-6.3c0,0,1.8-2,1.3-4.2c-0.4-2-0.8-5.4-0.6-7.3
		c0.2-2.7-1.8-4.4-2.3-0.5c-0.5,4.1-2.4,13.3-6,7.4v-9c0,0-1.1-0.2-1.7,1.5C11,29.7,7,31.7,7,33.3c0,1.5,1.5,3.2,2.1,7.1
		c0.1,1,0.9,2.3,1.4,3.7C12.4,46.2,14.8,47.9,17.5,49.2z"/>
	<path class="st2" d="M12.4,25.8v-9.2c0-1.7,1.4-3.1,3.1-3.1h9.1c1.7,0,3.1,1.4,3.1,3.1v20.8c0,1.7-1.4,3.1-3.1,3.1h-2.9
		c-0.1,0.1-0.1,0.1-0.1,0.2c-1.5,1.6-2.7,3.6-3,5.9c-0.1,1-0.2,2-0.2,3c-0.3-0.1-0.6-0.3-0.8-0.4c0-0.9,0.1-1.9,0.2-2.8
		c0.5-3.2,2.5-5.5,3.2-6.3c0,0,0.1-0.1,0.3-0.4h3.4c1.3,0,2.3-1,2.3-2.3V16.6c0-1.3-1-2.3-2.3-2.3h-9.1c-1.3,0-2.3,1-2.3,2.3v9.9
		c-0.1,0-1.1-0.1-1.7,1.5C11,29.7,7,31.7,7,33.3c0,1.5,1.5,3.2,2.1,7.1c0.1,1,0.9,2.3,1.4,3.7c-0.7-0.7-1.3-1.4-1.8-2.1
		c-0.2-0.5-0.4-1-0.4-1.5C8,39,7.6,37.7,7,36.3c-0.4-0.9-0.9-2-0.9-3c0-1.4,1.7-2.7,2.7-3.5c0.5-0.4,1.8-1.5,2-2.1
		c0.3-0.7,0.7-1.4,1.4-1.8C12.2,25.9,12.3,25.8,12.4,25.8z"/>
	<polygon class="st2" points="20.2,16.5 22.1,17.6 24,18.7 24,20.9 24,23.1 22.1,24.2 20.2,25.3 18.3,24.2 16.4,23.1 16.4,20.9 
		16.4,18.7 18.3,17.6 	"/>
	<polygon class="st2" points="20.2,16.5 22.1,17.6 24,18.7 24,20.7 16.4,20.7 16.4,18.7 18.3,17.6 	"/>
</g>
</svg>
