<?xml version="1.0" ?><!DOCTYPE svg  PUBLIC '-//W3C//DTD SVG 1.1//EN'  'http://www.w3.org/Graphics/SVG/1.1/DTD/svg11.dtd'><svg enable-background="new 0 0 128 128" height="128px" id="Layer_1" version="1.1" viewBox="0 0 128 128" width="128px" xml:space="preserve" xmlns="http://www.w3.org/2000/svg" xmlns:xlink="http://www.w3.org/1999/xlink"><path d="M90.2,29.6c-2.6,0-5,0.3-7.4,0.9c-1.8-11.9-11.9-21-24.3-21c-13.6,0-24.6,11-24.6,24.6  c0,1.8,0.2,3.6,0.6,5.4c-0.1,0-0.3,0-0.4,0c-13.5,0-24.4,10.7-24.4,24.2C9.6,77.3,20.5,88,34,88h56.1c16.2,0,29.4-13,29.4-29.2  C119.5,42.6,106.4,29.6,90.2,29.6z M90.2,84H34c-11.3,0-20.4-9-20.4-20.2c0-11.3,9.4-20.3,20.4-20.3c0,0,0,0,0,0.1c0,0,0.3,0,0.4,0  l5.1,0.1l-1.1-5c-0.3-1.5-0.5-3-0.5-4.5c0-11.4,9.2-20.6,20.6-20.6c10.1,0,18.9,7.5,20.3,17.6l0.1,0.9c-5,2.3-9.3,5.9-12.4,10.4  l3.3,2.3c4.6-6.5,11.8-11.1,20.3-11.1l0,0c14,0,25.4,11.2,25.4,25.2C115.5,72.8,104.2,84,90.2,84z" fill="#3B97D3"/><g><path d="M70.4,119H59.1c-0.6,0-1-0.4-1-1s0.4-1,1-1h11.3c0.6,0,1,0.4,1,1S70.9,119,70.4,119z" fill="#2C3E50"/><path d="M79,99c0-2.2-1.8-4-4-4H54c-2.2,0-4,1.8-4,4v12c0,2.2,1.8,4,4,4h21c2.2,0,4-1.8,4-4V99z M77,111   c0,1.1-0.9,2-2,2H54c-1.1,0-2-0.9-2-2V99c0-1.1,0.9-2,2-2h21c1.1,0,2,0.9,2,2V111z" fill="#2C3E50"/></g><g><path d="M106,111.8v-8.6v-1l0,0V101h0H92.4H92v1.3v1v8.6c0,0.9,1,1.2,1.9,1.2H95c0,0,0,0.7,0,0.8v0.1v0.5v2.5   c0,0.8,0.7,1.5,1.5,1.5s1.5-0.7,1.5-1.5v-2.5v-0.5v-0.1c0-0.1-0.1-0.8-0.2-0.8h2.7c0,0,0.4,0.7,0.4,0.8v0.1v0.5v2.5   c0,0.8,0.2,1.5,1,1.5c0.8,0,1-0.7,1-1.5v-2.5v-0.5v-0.1c0-0.1,0.4-0.8,0.4-0.8h1.1C105.4,113,106,112.7,106,111.8z" fill="#2C3E50"/><path d="M107,102.5v6.3c0,0.8,0.7,1.5,1.5,1.5c0.8,0,1.5-0.7,1.5-1.5v-6.3c0-0.8-0.7-1.5-1.5-1.5   C107.7,101.1,107,101.7,107,102.5z" fill="#2C3E50"/><path d="M89.5,110.3c0.8,0,1.5-0.7,1.5-1.5v-6.3c0-0.8-0.7-1.5-1.5-1.5s-1.5,0.7-1.5,1.5v6.3   C88,109.6,88.7,110.3,89.5,110.3z" fill="#2C3E50"/><path d="M103.2,93.5l0.6-0.9c0.1-0.1,0-0.3-0.1-0.3c-0.1-0.1-0.3,0-0.3,0.1l-0.6,1l-0.3,0.4l-0.3,0.4   c-0.9-0.3-1.8-0.5-2.8-0.5c-1,0-2,0.2-2.8,0.5l-0.3-0.4L96,93.3l-0.6-1c-0.1-0.1-0.2-0.1-0.3-0.1c-0.1,0.1-0.1,0.2-0.1,0.3l0.6,0.9   l0.3,0.4l0.3,0.3c-2,1-3.4,2.8-3.4,4.8H106c0-2-1.4-3.8-3.4-4.8l0.3-0.4L103.2,93.5z M96.5,97.2c-0.4,0-0.7-0.3-0.7-0.7   c0-0.4,0.3-0.7,0.7-0.7s0.7,0.3,0.7,0.7C97.2,96.9,96.9,97.2,96.5,97.2z M102.9,96.5c0,0.4-0.3,0.7-0.7,0.7s-0.7-0.3-0.7-0.7   c0-0.4,0.3-0.7,0.7-0.7S102.9,96.1,102.9,96.5z" fill="#2C3E50"/></g><g><path d="M36.2,106.1c0-3.3,2.7-4.9,2.8-5c-1.5-2.3-4-2.6-4.8-2.6c-2-0.2-4,1.2-5,1.2c-1,0-2.6-1.2-4.3-1.1   c-2.2,0-4.3,1.3-5.4,3.3c-2.3,4-0.6,10,1.7,13.2c1.1,1.6,2.4,3.4,4.1,3.3c1.7-0.1,2.3-1.1,4.3-1.1c2,0,2.6,1.1,4.3,1   c1.8,0,2.9-1.6,4-3.2c1.3-1.9,1.8-3.6,1.8-3.7C39.7,111.4,36.2,110.1,36.2,106.1z" fill="#2C3E50"/><path d="M32.9,96.3c0.9-1.1,1.5-2.7,1.4-4.2c-1.3,0.1-2.9,0.9-3.9,2c-0.9,1-1.6,2.6-1.4,4.1   C30.4,98.3,31.9,97.4,32.9,96.3z" fill="#2C3E50"/></g></svg>