<?xml version="1.0" ?><!DOCTYPE svg  PUBLIC '-//W3C//DTD SVG 1.1//EN'  'http://www.w3.org/Graphics/SVG/1.1/DTD/svg11.dtd'><svg enable-background="new 0 0 128 128" id="Layer_1" version="1.1" viewBox="0 0 128 128" xml:space="preserve" xmlns="http://www.w3.org/2000/svg" xmlns:xlink="http://www.w3.org/1999/xlink"><path d="M86,110H42c-3.3,0-6-2.7-6-6V24c0-3.3,2.7-6,6-6h44c3.3,0,6,2.7,6,6v80C92,107.3,89.3,110,86,110z" fill="#3E3E42"/><rect fill="#57575E" height="64" width="48" x="40" y="32"/><circle cx="64" cy="103" fill="#323235" r="4"/><circle cx="64" cy="103" opacity="0.1" r="3.5"/><path d="M71,26H55c-0.6,0-1-0.4-1-1s0.4-1,1-1h16c0.6,0,1,0.4,1,1S71.6,26,71,26z" fill="#323235"/></svg>