<?xml version="1.0" ?><svg enable-background="new 0 0 64 64" version="1.1" viewBox="0 0 64 64" xml:space="preserve" xmlns="http://www.w3.org/2000/svg" xmlns:xlink="http://www.w3.org/1999/xlink"><g id="row_4"><g id="cloud"><g><g><rect fill="#26C6DA" height="2" width="21" x="37" y="56"/><rect fill="#26C6DA" height="2" width="21" x="6" y="56"/><rect fill="#26C6DA" height="13" width="2" x="31" y="42"/></g></g><path d="M36,60h-8c-1.1,0-2-0.9-2-2v-2c0-1.1,0.9-2,2-2h8c1.1,0,2,0.9,2,2v2C38,59.1,37.1,60,36,60z" fill="#F9A825"/><path d="M49.4,13.2C46,7.1,39.5,3,32,3c-11,0-20,9-20,20C6.5,23,2,27.5,2,33s4.5,10,10,10h35c8.3,0,15-6.7,15-15    C62,20.7,56.6,14.4,49.4,13.2z" fill="#BBDEFB"/><path d="M12,23c3.1,0,6,1.4,7.9,3.9l-1.6,1.2C16.8,26.1,15.6,23.7,12,23z" fill="#90CAF9"/><path d="M49.4,13.2c1.6,2.9,2.6,6.2,2.6,9.8h-2C50,19.6,50.3,15.9,49.4,13.2z" fill="#90CAF9"/></g></g><g id="row_3"/><g id="row_2"/><g id="row_1"/></svg>