<?xml version="1.0" encoding="UTF-8"?>
<!DOCTYPE svg PUBLIC "-//W3C//DTD SVG 1.1//EN" "http://www.w3.org/Graphics/SVG/1.1/DTD/svg11.dtd">
<!-- Creator: CorelDRAW Home & Student X7 -->
<svg xmlns="http://www.w3.org/2000/svg" xml:space="preserve" width="458.61mm" height="297.74mm" version="1.1" style="shape-rendering:geometricPrecision; text-rendering:geometricPrecision; image-rendering:optimizeQuality; fill-rule:evenodd; clip-rule:evenodd"
viewBox="0 0 45861 29774"
 xmlns:xlink="http://www.w3.org/1999/xlink">
 <defs>
  <style type="text/css">
   <![CDATA[
    .fil42 {fill:black}
    .fil20 {fill:#02A2F9}
    .fil18 {fill:#0F161E}
    .fil37 {fill:#0F161E}
    .fil32 {fill:#111822}
    .fil5 {fill:#1DBED0}
    .fil10 {fill:#303741}
    .fil17 {fill:#313842}
    .fil0 {fill:#535156}
    .fil30 {fill:#5F3813}
    .fil8 {fill:#6E6F71}
    .fil31 {fill:#754C24}
    .fil26 {fill:#754E2F}
    .fil16 {fill:#808185}
    .fil22 {fill:#8C6239}
    .fil14 {fill:#8E8E90}
    .fil9 {fill:#8E8F93}
    .fil36 {fill:#939499}
    .fil7 {fill:#96959A}
    .fil13 {fill:#98979D}
    .fil15 {fill:#A5A6AA}
    .fil40 {fill:#A5A6AA}
    .fil1 {fill:#A6A7AB}
    .fil6 {fill:#BCBABF}
    .fil41 {fill:#C1C2C6}
    .fil34 {fill:#D35626}
    .fil28 {fill:lightgrey}
    .fil4 {fill:#D95B32}
    .fil25 {fill:#E2CFBF}
    .fil38 {fill:#E5E9E9}
    .fil29 {fill:#E6E6E6}
    .fil27 {fill:#E8E8E8}
    .fil24 {fill:#F1F1F1}
    .fil23 {fill:#F3E7DD}
    .fil2 {fill:#F4F6F1}
    .fil33 {fill:#F4F7F0}
    .fil12 {fill:#F5AA10}
    .fil11 {fill:#F5F7F2}
    .fil3 {fill:#FCB21F}
    .fil39 {fill:#FDFEFE}
    .fil43 {fill:red}
    .fil35 {fill:#FFAD26}
    .fil21 {fill:#FFAD26}
    .fil19 {fill:white}
   ]]>
  </style>
 </defs>
 <g id="Capa_x0020_1">
  <metadata id="CorelCorpID_0Corel-Layer"/>
  <rect class="fil0" x="8" y="24926" width="45861" height="4806"/>
  <g id="_498647584">
   <path class="fil1" d="M8802 14528l14096 0c220,0 400,180 400,400l0 9395c0,55 -45,100 -100,100l-14696 0c-55,0 -100,-45 -100,-100l0 -9395c0,-220 180,-400 400,-400z"/>
   <rect class="fil2" x="8825" y="15824" width="14049" height="7197"/>
   <rect class="fil3" x="11021" y="16301" width="4075" height="873"/>
   <rect class="fil4" x="18615" y="16301" width="2064" height="397"/>
   <rect class="fil5" x="11021" y="17491" width="9604" height="2355"/>
   <rect class="fil6" x="11048" y="21063" width="2963" height="1429"/>
   <rect class="fil6" x="14355" y="21063" width="2990" height="1429"/>
   <rect class="fil6" x="17689" y="21037" width="3016" height="1429"/>
   <rect class="fil7" x="13112" y="20137" width="5477" height="185"/>
   <rect class="fil7" x="13879" y="20481" width="3942" height="185"/>
   <path class="fil1" d="M13945 25958c362,-331 486,-842 370,-1535l3162 0c-113,718 2,1230 344,1535 -2293,0 -3585,0 -3876,0z"/>
   <rect class="fil8" x="12820" y="25948" width="6085" height="556"/>
   <path class="fil9" d="M14315 24423c21,159 42,344 42,424l3078 0c5,-135 19,-276 42,-424 -2108,0 -3162,0 -3162,0z"/>
  </g>
  <g id="_498643288">
   <path class="fil10" d="M21416 18682l11503 0c220,0 400,180 400,400l0 7749 -12303 0 0 -7749c0,-220 180,-400 400,-400z"/>
   <rect class="fil11" x="21413" y="19370" width="11509" height="7064"/>
   <rect class="fil12" x="23027" y="19886" width="3479" height="767"/>
   <rect class="fil4" x="29522" y="19886" width="1799" height="344"/>
   <rect class="fil5" x="23014" y="20904" width="8321" height="2011"/>
   <rect class="fil13" x="24826" y="23180" width="4696" height="159"/>
   <rect class="fil13" x="25461" y="23497" width="3426" height="119"/>
   <rect class="fil6" x="23040" y="23960" width="2527" height="1283"/>
   <rect class="fil6" x="25919" y="23960" width="2527" height="1283"/>
   <rect class="fil6" x="28797" y="23960" width="2527" height="1283"/>
   <rect class="fil14" x="23027" y="25455" width="2566.46" height="92.61"/>
   <rect class="fil14" x="25905" y="25455" width="2566.46" height="92.61"/>
   <rect class="fil14" x="28784" y="25455" width="2566.46" height="92.61"/>
   <rect class="fil14" x="23027" y="25693" width="2580" height="119"/>
   <rect class="fil14" x="25905" y="25693" width="2580" height="119"/>
   <rect class="fil14" x="28784" y="25693" width="2580" height="119"/>
   <rect class="fil14" x="23040" y="25945" width="2196.04" height="79.38"/>
   <rect class="fil14" x="25919" y="25945" width="2196.04" height="79.38"/>
   <rect class="fil14" x="28797" y="25945" width="2196.04" height="79.38"/>
   <path class="fil15" d="M19529 26831l15269 0c55,0 100,45 100,100l0 297 -15469 0 0 -297c0,-55 45,-100 100,-100z"/>
   <polygon class="fil16" points="34895,27228 19429,27228 20028,27552 34414,27552 "/>
  </g>
  <g id="_498641968">
   <rect class="fil17" x="31050" y="22942" width="7488" height="5239" rx="600" ry="600"/>
   <rect class="fil2" x="31877" y="23278" width="5922" height="4558"/>
   <rect class="fil3" x="32803" y="23580" width="1718" height="553"/>
   <rect class="fil4" x="36004" y="23580" width="870" height="251"/>
   <rect class="fil5" x="32803" y="24334" width="4049" height="1492"/>
   <rect class="fil6" x="32814" y="26596" width="1249" height="905"/>
   <rect class="fil6" x="34208" y="26596" width="1260" height="905"/>
   <rect class="fil6" x="35614" y="26580" width="1271" height="905"/>
   <rect class="fil7" x="33684" y="26010" width="2309" height="117"/>
   <rect class="fil7" x="34008" y="26228" width="1662" height="117"/>
   <circle class="fil18" cx="31540" cy="25587" r="225"/>
  </g>
  <g id="_501200424">
   <g>
    <path class="fil19" d="M40553 16958c70,58 291,276 370,361l1475 1560c123,136 241,284 369,407l745 772c-1,580 34,516 390,776 -165,513 -1493,3395 -1839,4229 -71,170 -30,199 -201,258 -265,92 -398,196 -466,487 -594,0 -1289,-146 -1340,178 -12,77 4,161 17,237l3911 2c24,-112 16,-278 -17,-378 -265,-95 -1043,-9 -1407,-49 -107,-191 -57,-207 -223,-330 51,-212 1235,-2885 1344,-3126 116,-257 217,-499 333,-761 83,-187 253,-642 350,-778 131,-186 420,-312 271,-738 -112,-321 -359,-373 -734,-386l-2255 -2377c-76,-81 -161,-140 -237,-221l-670 -706c-162,-164 -281,-373 -471,-493 40,149 137,311 194,489 84,266 14,330 192,476l-34 8c-63,6 57,3 -30,1 -124,-3 59,-28 -37,-9l0 111z"/>
    <path class="fil20" d="M37105 15464l3117 2657c71,-184 167,-308 235,-520 69,-219 86,-399 96,-643l0 -111c96,-19 -87,6 37,9 87,2 -33,5 30,-1l34 -8c-178,-146 -108,-210 -192,-476 -57,-178 -154,-340 -194,-489 -58,-169 339,-484 -35,-870 -279,-288 -607,-193 -883,70 -487,-67 -646,-253 -1278,-113 -478,106 -683,283 -967,495z"/>
    <path class="fil19" d="M40222 18121l-3117 -2657c-95,-52 -266,-217 -341,-232 -164,-32 -301,125 -327,255 -41,204 264,364 551,617l2905 2459c94,81 212,234 364,211 120,-18 273,-189 250,-332 -18,-119 -209,-244 -285,-321z"/>
    <path class="fil20" d="M43984 26225l-3911 -2c-431,33 -747,-121 -644,460 226,150 914,77 1261,77 686,0 3663,59 3903,-57l-20 -410c-214,-95 -323,-50 -589,-68z"/>
   </g>
   <path class="fil21" d="M37754 16752c695,589 1043,883 1043,883 -262,62 -538,-4 -744,-178 -206,-174 -317,-436 -299,-705z"/>
  </g>
  <g id="_501193800">
   <path class="fil22" d="M3105 24277l22 -2c315,6 535,263 576,570 23,172 -17,352 -91,475 -108,180 -134,204 -319,279l14 116 1960 1c117,-5 87,-39 128,-325 32,-221 172,-1093 157,-1193l-52 -17 -2407 4 12 92z"/>
   <path class="fil23" d="M3530 27320l1475 0c63,-70 119,-639 142,-793 38,-256 100,-561 120,-811l-1960 -1 223 1605z"/>
   <polygon class="fil23" points="3093,24185 5500,24181 5628,23321 2971,23321 "/>
   <path class="fil24" d="M2945 23234l2694 -4 200 -2c5,-28 -24,-527 -74,-551l-227 -12 -2683 1 90 568z"/>
   <path class="fil25" d="M2608 27320l922 0 -223 -1605 -961 1c20,252 81,554 119,811 23,153 79,724 143,793z"/>
   <polygon class="fil25" points="2112,24182 3093,24185 2971,23321 5628,23321 5639,23230 2945,23234 1973,23229 "/>
   <path class="fil26" d="M2346 25716l961 -1 -14 -116c-406,110 -693,-208 -734,-560 -45,-383 200,-747 546,-762l-12 -92 -981 -3 -52 16c-15,102 149,1115 184,1378 15,114 -6,135 102,140z"/>
   <path class="fil27" d="M1973 23229l972 5 -90 -568 2683 -1 0 -20 -2859 -5 -46 -241 541 0 0 -12 -541 0 -30 -155c-183,43 -168,137 -246,168 -333,0 -229,7 -279,268 -219,0 -178,-34 -224,330 -21,172 -79,250 119,231z"/>
   <path class="fil24" d="M5538 22645c0,-111 19,-214 -79,-240 -51,-13 -255,-5 -323,-5 -639,0 -1335,12 -1962,-1l-541 0 46 241 2859 5z"/>
   <path class="fil28" d="M3293 25599l11 -24c-34,-44 -48,-246 -54,-313 -13,0 -31,2 -44,-1 -35,-8 -8,1 -27,-13 -217,6 -439,-422 -272,-557 77,28 180,210 276,263l2 -29c-55,-67 -220,-201 -220,-280 68,-36 137,-3 202,15 -19,-93 -64,-301 -40,-385l-22 2c-346,15 -591,379 -546,762 41,352 328,670 734,560z"/>
   <path class="fil24" d="M3167 24660l-7 12c94,36 139,92 186,174 50,87 110,290 15,264 -18,-5 -12,-4 -25,-16l-145 -175 -6 6 -2 29c10,26 -3,3 19,19 11,26 4,3 10,27 47,29 152,137 165,180 -32,49 -53,63 -127,82 6,67 9,293 43,337 128,-6 262,-184 319,-279 74,-123 114,-303 91,-475 -41,-307 -261,-564 -576,-570 -24,84 21,292 40,385z"/>
   <path class="fil29" d="M2478 20821c-106,47 46,133 58,257 24,236 -239,267 -177,576 15,71 89,240 166,200 94,-48 -50,-142 -54,-271 -7,-221 253,-256 174,-572 -19,-76 -89,-224 -167,-190z"/>
   <path class="fil30" d="M3193 25257l57 5 -38 -262c-6,-24 1,-1 -10,-27 -58,-59 -250,-266 -295,-282 -167,135 69,572 286,566z"/>
   <path class="fil24" d="M3174 22387c1,-192 -14,-151 -208,-150 -122,0 -241,0 -363,-5l30 155 541 0z"/>
   <path class="fil31" d="M3185 24925l151 169c13,12 7,11 25,16 95,26 35,-177 -15,-264 -47,-82 -90,-130 -179,-186 15,55 35,225 18,265z"/>
   <path class="fil30" d="M3185 24925l6 -6c18,-41 -9,-204 -24,-259l0 0c-65,-18 -134,-51 -202,-15 0,79 165,213 220,280z"/>
   <path class="fil31" d="M3206 25261c13,3 31,1 44,1 74,-19 95,-33 127,-82 -13,-43 -138,-173 -187,-219l55 277c-19,3 -102,8 -39,23z"/>
  </g>
  <g id="_501191664">
   <path class="fil17" d="M7761 22657l2102 0c165,0 300,135 300,300l0 4779c0,110 -90,200 -200,200l-2302 0c-110,0 -200,-90 -200,-200l0 -4779c0,-165 135,-300 300,-300z"/>
   <rect class="fil32" x="8356" y="22973" width="946" height="142" rx="100" ry="100"/>
   <rect class="fil33" x="7625" y="23360" width="2408" height="3717"/>
   <rect class="fil34" x="8772" y="23472" width="1115" height="189"/>
   <rect class="fil35" x="7747" y="23734" width="2146" height="463"/>
   <rect class="fil5" x="7744" y="24306" width="2153" height="1220"/>
   <rect class="fil36" x="7879" y="25678" width="1845" height="106"/>
   <rect class="fil36" x="8151" y="25877" width="1289.85" height="92.61"/>
   <rect class="fil6" x="7740" y="26131" width="982" height="820"/>
   <rect class="fil6" x="8911" y="26131" width="989" height="814"/>
   <circle class="fil37" cx="8847" cy="27423" r="207"/>
  </g>
  <g id="_501189936">
   <path class="fil38" d="M12172 9740l125 0 0 314 -125 0 0 -314zm2626 -2647l333 0 0 125 -333 0 0 -125zm-2501 -97c30,47 23,55 84,76l1271 0 0 42 -1271 0c-54,26 -23,-28 -47,59 202,183 680,765 880,963 75,74 89,93 149,164 66,80 124,84 78,165 -78,-38 -477,-524 -581,-622l-566 -634 -144 -15c-41,100 -738,976 -858,1123l-659 841c-57,74 -147,233 -239,256l33 32c74,37 125,89 208,143 74,48 159,100 237,139 570,283 1137,408 1801,306 1989,-305 3156,-2510 2049,-4407 -79,-136 -220,-327 -309,-421l-382 -364 -32 0 -422 551c-73,91 -141,179 -210,270l-420 538c-104,128 -559,753 -650,795z"/>
   <path class="fil39" d="M9320 7092l331 1 0 125 -331 2c50,1068 527,1727 1074,2194 92,-23 182,-182 239,-256l659 -841c120,-147 817,-1023 858,-1123 -49,-118 -48,-65 2,-181 47,-110 20,-1617 20,-1774l125 0 0 1757c91,-42 546,-667 650,-795l420 -538c69,-91 137,-179 210,-270l422 -551c-109,-137 -515,-339 -738,-422 -288,-107 -632,-184 -964,-182l0 334 -125 0 0 -334c-415,-2 -840,118 -1170,269 -152,69 -326,172 -447,261 -273,199 -526,440 -715,722 -333,496 -494,968 -520,1602z"/>
   <path class="fil40" d="M14031 4842l382 364c89,94 230,285 309,421 1107,1897 -60,4102 -2049,4407 -664,102 -1231,-23 -1801,-306 -78,-39 -163,-91 -237,-139 -83,-54 -134,-106 -208,-143 -51,37 -130,143 -176,205 -49,66 -129,150 -164,218 79,85 213,165 325,235 105,66 251,127 344,193 179,54 347,142 554,201 207,59 431,96 653,113 583,45 884,-50 1397,-168 16,-16 293,-124 348,-147 726,-319 1564,-1159 1774,-1932 189,-286 231,-1109 215,-1500 -41,-306 -96,-510 -155,-792 -42,-48 -130,-549 -810,-1340 -67,-65 -118,-110 -192,-174 -33,-29 -60,-59 -98,-88 -40,-31 -50,-33 -96,-74 -49,140 -270,308 -315,446z"/>
   <path class="fil41" d="M10087 9869c35,-68 115,-152 164,-218 46,-62 125,-168 176,-205l-33 -32c-547,-467 -1024,-1126 -1074,-2194l0 -128c26,-634 187,-1106 520,-1602 189,-282 442,-523 715,-722 121,-89 295,-192 447,-261 330,-151 755,-271 1170,-269l125 0c332,-2 676,75 964,182 223,83 629,285 738,422l32 0c45,-138 266,-306 315,-446 -610,-505 -1661,-831 -2686,-667 -1868,299 -3140,2070 -2850,3976 89,590 436,1343 829,1756 95,100 336,349 448,408z"/>
   <path class="fil42" d="M12150 7194l144 15c10,-25 -9,-19 40,-36 24,-87 -7,-33 47,-59l1271 0 0 -42 -1271 0c-61,-21 -54,-29 -84,-76l0 -1757 -125 0c0,157 27,1664 -20,1774 -50,116 -51,63 -2,181z"/>
   <path class="fil43" d="M12294 7209l566 634c104,98 503,584 581,622 46,-81 -12,-85 -78,-165 -60,-71 -74,-90 -149,-164 -200,-198 -678,-780 -880,-963 -49,17 -30,11 -40,36z"/>
   <polygon class="fil42" points="9320,7220 9651,7218 9651,7093 9320,7092 "/>
   <polygon class="fil42" points="14798,7218 15131,7218 15131,7093 14798,7093 "/>
   <polygon class="fil42" points="12297,4238 12172,4238 12172,4572 12297,4572 "/>
   <polygon class="fil42" points="12172,10054 12297,10054 12297,9740 12172,9740 "/>
  </g>
 </g>
</svg>
